<svg xmlns="http://www.w3.org/2000/svg" width="229.333" height="229.333" preserveAspectRatio="xMidYMid meet" version="1.0" viewBox="0 0 172 172"><metadata>Created by potrace 1.14, written by Peter Selinger 2001-2017</metadata><g fill="#000" stroke="none"><path d="M1160 1703 c-14 -2 -63 -10 -110 -18 -48 -8 -98 -12 -115 -8 -40 10 -201 10 -245 0 -19 -4 -66 -21 -105 -38 -65 -27 -115 -39 -240 -54 -184 -24 -339 -210 -330 -397 3 -66 15 -188 20 -208 2 -8 7 -35 10 -60 3 -25 12 -79 20 -120 7 -41 21 -129 30 -195 45 -332 56 -368 134 -457 93 -105 215 -147 361 -124 78 12 93 15 180 26 123 16 149 20 210 30 54 9 75 12 195 26 33 3 62 8 65 9 3 2 28 6 56 9 201 23 330 118 389 286 20 55 26 132 15 190 -7 39 -13 89 -24 192 -2 14 -8 55 -14 90 -10 54 -37 224 -58 362 -3 21 -7 46 -9 55 -1 9 -6 41 -10 71 -14 105 -64 187 -158 256 -79 58 -187 90 -267 77z" transform="translate(0.000000,172.000000) scale(0.100000,-0.100000)"/></g></svg>