<svg width="151" height="57" viewBox="0 0 151 57" fill="none" xmlns="http://www.w3.org/2000/svg">
<path d="M147.866 40.5072C147.801 38.1633 147.777 35.8398 147.686 33.5265C147.633 32.3577 147.541 31.2216 147.449 30.0855C147.655 18.445 147.821 1.4564 145.548 5.7364C145.623 5.59121 145.697 5.41946 145.793 5.1639C144.894 5.35505 144.003 5.43789 143.11 5.4676C140.346 5.16855 137.584 5.21691 134.812 5.34701C134.568 5.35753 134.311 5.37011 134.054 5.38268C134.001 5.39092 133.946 5.3726 133.892 5.38084C132.904 5.42497 131.916 5.44253 130.929 5.48666C119.655 4.91196 65.1319 5.66154 53.8629 5.48738C43.9944 4.21615 33.2551 4.0679 23.3202 4.62575C22.3365 4.74957 21.2472 4.03362 20.295 4.55386C19.6002 4.47297 18.8932 4.4207 18.1996 4.36638C16.0689 3.99707 13.889 4.03653 11.7554 4.20264C8.19648 3.11574 4.45248 3.9296 1.00459 3.2002C0.939214 3.85218 0.88729 4.5021 0.862285 5.1479C0.798241 6.20914 0.834761 6.46987 0.881569 7.95793C0.943536 9.92786 1.06054 11.9161 1.06507 13.8146C0.981588 18.5619 0.784185 23.4872 1.00279 28.322C1.04228 36.6884 1.34854 44.9604 1.24985 53.2677C2.47574 53.1067 3.78958 53.0929 5.03733 53.1159C5.39565 53.2483 5.75277 53.3541 6.10989 53.4599C5.12385 53.5306 3.96164 53.6015 3.13371 54.7715C2.95491 55.0128 3.14283 55.5725 3.33869 55.4088C4.30216 54.5391 5.63523 54.9503 6.65659 55.0614C7.8272 55.1764 8.98674 55.3467 10.1501 55.3023C13.83 55.167 17.5131 55.4057 21.1925 55.8589C28.7285 56.7917 36.2349 54.2898 43.7803 54.2315C49.1446 54.1861 54.4932 55.6353 59.8418 55.2446C67.7157 55.8582 75.6744 55.9506 83.1329 54.5681C84.3513 54.5421 85.5551 54.4916 86.7699 54.3859C87.3375 54.3525 130.826 54.1151 131.028 54.0842C131.495 54.2267 139.91 54.811 144.05 54.0702C144.077 54.0661 144.119 54.0865 144.159 54.0803C144.595 54.1206 145.03 54.161 145.471 54.0133C145.604 53.9661 145.71 53.9231 145.844 53.8759C145.91 53.8391 145.925 53.8636 145.912 53.8922C145.938 53.8615 145.964 53.8308 146.015 53.7694C146.027 53.7408 146.93 53.3351 147.124 53.1182C147.626 52.5331 147.712 51.7442 147.362 51.1827C146.879 50.4006 141.718 50.4417 140.694 50.2774C138.061 49.878 135.428 50.3881 132.784 50.659C129.021 51.0479 82.2778 51.5426 78.5101 51.5309C74.7827 51.513 71.0517 51.4154 67.3216 51.6387C67.1186 51.643 66.9032 51.676 66.7002 51.6803C61.7495 51.5822 56.8273 51.2122 51.9572 49.898C45.6509 48.5897 39.6512 50.7653 33.4665 50.3479C24.5626 48.2335 15.7778 51.7927 6.88475 49.9174C3.76179 48.2823 3.2895 51.3237 2.98996 43.7997C3.00582 43.8507 3.03634 43.9263 3.05341 44.004C3.12362 41.9603 3.03233 39.9413 2.8603 37.9348C2.65851 33.4718 2.81325 22.5079 2.79122 18.1244C2.6199 16.733 3.18011 15.3365 2.71872 14.1232C2.94248 12.7782 2.72388 7.9434 2.67032 6.15942C3.57056 6.28911 4.54075 6.16734 4.81111 6.15271C5.27108 6.13579 5.73106 6.11888 6.19104 6.10196C10.4925 7.12868 14.8989 7.1764 19.2773 6.9074C19.242 6.72556 19.2629 6.58862 19.3119 6.47412C19.3388 6.47 19.3804 6.49038 19.4073 6.48626C19.3852 6.59664 19.352 6.76221 19.2785 6.93396C20.5104 6.90588 21.774 6.97994 23.0169 6.89667C26.6155 7.36227 30.2177 7.90757 33.8175 8.39973C37.4576 8.88571 41.0906 9.21231 44.7324 9.13631C48.4293 9.07863 52.13 8.80637 55.8281 8.77526C59.5127 8.74621 63.1969 9.30571 66.8913 9.1949C70.5185 9.09439 74.1447 8.67304 77.7806 8.46422C81.8348 8.21809 128.898 8.20929 132.941 8.01835C137.011 7.8233 141.082 7.65481 145.141 8.39777C145.126 8.66754 145.124 8.93525 145.122 9.1764C145.08 10.654 145.133 12.1171 145.185 13.5802C145.326 17.5977 145.385 21.601 145.649 25.6265C145.795 27.9581 146.061 30.2445 146.18 32.5802C146.315 34.9669 146.302 37.3763 146.344 39.804C146.354 40.6316 146.393 41.4817 146.43 42.3053C146.427 43.135 146.437 43.9626 146.434 44.7923C146.223 45.5201 146.294 48.2433 146.474 51.0244C146.362 51.5497 146.415 52.13 146.597 52.5569C146.68 53.1862 146.758 53.415 146.832 52.949C146.846 52.9735 146.875 52.9959 146.889 53.0204C146.947 53.0919 147.016 53.1347 147.074 53.2062C147.582 53.6633 148.005 52.8229 148.101 51.9522C148.59 47.4905 147.996 44.8741 147.866 40.5072Z" fill="black"/>
<path d="M1.99997 5.00023H72V52.0002H1.99997V5.00023Z" fill="black"/>
<rect width="145" height="46" transform="translate(4 3)" fill="#5F5EF9"/>
<path d="M150.215 38.0201C150.149 35.6762 150.125 33.3527 150.034 31.0395C149.982 29.8706 149.89 28.7345 149.798 27.5984C150.003 15.9579 150.169 -1.03064 147.896 3.24936C147.971 3.10418 148.045 2.93243 148.142 2.67686C147.242 2.86802 146.352 2.95086 145.459 2.98056C142.694 2.68151 139.932 2.72987 137.16 2.85998C136.916 2.87049 136.659 2.88307 136.403 2.89565C136.349 2.90389 136.294 2.88556 136.24 2.8938C135.253 2.93793 134.264 2.95549 133.277 2.99962C122.003 2.42493 67.4801 3.1745 56.2111 3.00034C46.3426 1.72911 35.6033 1.58087 25.6683 2.13871C24.6847 2.26254 23.5953 1.54658 22.6432 2.06682C21.9484 1.98593 21.2414 1.93366 20.5478 1.87934C18.4171 1.51003 16.2371 1.54949 14.1036 1.7156C10.5447 0.628705 6.80066 1.44256 3.35277 0.713159C3.28739 1.36514 3.23546 2.01506 3.21046 2.66086C3.14641 3.72211 3.18293 3.98283 3.22974 5.47089C3.29171 7.44082 3.40871 9.42908 3.41324 11.3276C3.32976 16.0749 3.13236 21.0002 3.35096 25.835C3.39046 34.2013 3.69671 42.4734 3.59802 50.7806C4.82391 50.6197 6.13775 50.6058 7.3855 50.6288C7.74382 50.7612 8.10095 50.867 8.45806 50.9729C7.47202 51.0436 6.30982 51.1145 5.48189 52.2844C5.30308 52.5258 5.491 53.0855 5.68687 52.9218C6.65033 52.0521 7.9834 52.4632 9.00477 52.5744C10.1754 52.6894 11.3349 52.8596 12.4983 52.8153C16.1781 52.68 19.8613 52.9186 23.5406 53.3719C31.0766 54.3047 38.5831 51.8028 46.1285 51.7445C51.4927 51.6991 56.8413 53.1483 62.19 52.7575C70.0639 53.3711 78.0226 53.4635 85.481 52.0811C86.6995 52.0551 87.9032 52.0045 89.1181 51.8988C89.6857 51.8654 133.174 51.6281 133.376 51.5972C133.843 51.7396 142.258 52.324 146.398 51.5832C146.425 51.5791 146.467 51.5995 146.507 51.5933C146.943 51.6336 147.378 51.6739 147.819 51.5263C147.952 51.4791 148.059 51.4361 148.192 51.3889C148.258 51.352 148.273 51.3765 148.26 51.4052C148.286 51.3745 148.312 51.3438 148.363 51.2824C148.376 51.2538 149.279 50.848 149.472 50.6312C149.974 50.0461 150.06 49.2572 149.71 48.6956C149.227 47.9135 144.066 47.9546 143.042 47.7904C140.409 47.391 137.776 47.901 135.132 48.172C131.369 48.5608 84.626 49.0556 80.8582 49.0439C77.1309 49.026 73.3999 48.9284 69.6698 49.1516C69.4667 49.156 69.2514 49.1889 69.0483 49.1933C64.0977 49.0951 59.1754 48.7252 54.3053 47.411C47.9991 46.1027 41.9994 48.2783 35.8147 47.8608C26.9108 45.7465 18.126 49.3057 9.23292 47.4304C6.10997 45.7953 5.63767 48.8367 5.33813 41.3126C5.35399 41.3637 5.38452 41.4393 5.40158 41.5169C5.47179 39.4733 5.3805 37.4543 5.20847 35.4477C5.00668 30.9848 5.16142 20.0208 5.13939 15.6374C4.96807 14.2459 5.52829 12.8495 5.06689 11.6361C5.29066 10.2912 5.07205 5.45636 5.01849 3.67239C5.91874 3.80207 6.88892 3.68031 7.15928 3.66567C7.61926 3.64876 8.07924 3.63184 8.53921 3.61493C12.8407 4.64165 17.247 4.68936 21.6255 4.42036C21.5901 4.23852 21.6111 4.10158 21.6601 3.98708C21.687 3.98296 21.7286 4.00334 21.7555 3.99922C21.7334 4.1096 21.7002 4.27518 21.6267 4.44693C22.8586 4.41885 24.1222 4.4929 25.3651 4.40963C28.9637 4.87523 32.5659 5.42053 36.1657 5.91269C39.8058 6.39868 43.4388 6.72527 47.0806 6.64927C50.7775 6.59159 54.4782 6.31933 58.1763 6.28822C61.8609 6.25917 65.545 6.81867 69.2395 6.70786C72.8667 6.60736 76.4929 6.18601 80.1288 5.97718C84.183 5.73105 131.246 5.72225 135.289 5.53132C139.359 5.33626 143.431 5.16777 147.489 5.91073C147.474 6.1805 147.473 6.44821 147.47 6.68936C147.428 8.16692 147.481 9.63005 147.534 11.0932C147.675 15.1107 147.734 19.114 147.997 23.1395C148.143 25.471 148.409 27.7575 148.528 30.0931C148.663 32.4799 148.65 34.8893 148.692 37.317C148.702 38.1446 148.741 38.9947 148.778 39.8182C148.775 40.6479 148.785 41.4756 148.782 42.3052C148.571 43.033 148.642 45.7562 148.822 48.5373C148.71 49.0627 148.763 49.643 148.945 50.0699C149.028 50.6992 149.106 50.928 149.18 50.4619C149.195 50.4864 149.223 50.5089 149.237 50.5334C149.295 50.6048 149.364 50.6477 149.422 50.7191C149.93 51.1763 150.353 50.3358 150.449 49.4652C150.939 45.0034 150.344 42.3871 150.215 38.0201Z" fill="#1E1E1E"/>
<path d="M23.0002 24.9358C22.7228 24.9891 22.4562 25.0265 22.2002 25.0478C21.9548 25.0798 21.7201 25.0958 21.4961 25.0958C20.7708 25.0958 20.0668 24.9838 19.3841 24.7598C18.7014 24.5358 18.0881 24.1891 17.5441 23.7198C17.0107 23.2504 16.5787 22.6477 16.248 21.9117C15.928 21.165 15.768 20.269 15.768 19.2237C15.768 18.1036 15.9654 17.149 16.36 16.3596C16.7547 15.5703 17.2827 14.9302 17.9441 14.4396C18.6161 13.9489 19.3894 13.6022 20.2641 13.3995C21.1388 13.1969 22.0508 13.1222 23.0002 13.1755L22.9202 16.1676C22.4402 16.1356 21.9601 16.1729 21.4801 16.2796C21.0108 16.3756 20.5841 16.5463 20.2001 16.7916C19.8161 17.037 19.4961 17.3623 19.2401 17.7676C18.9948 18.173 18.8561 18.669 18.8241 19.2557C18.7707 20.013 18.8347 20.6584 19.0161 21.1917C19.1974 21.7144 19.4694 22.1464 19.8321 22.4877C20.1948 22.8291 20.6375 23.0797 21.1601 23.2397C21.6935 23.3998 22.2908 23.4798 22.9522 23.4798L23.0002 24.9358ZM29.4921 24.5998C29.1614 24.7171 28.8147 24.7971 28.452 24.8398C28.1 24.8825 27.7694 24.9038 27.46 24.9038C27.14 24.9038 26.8147 24.8504 26.484 24.7438C26.1533 24.6264 25.8546 24.4451 25.588 24.1998C25.3213 23.9438 25.1026 23.6184 24.932 23.2237C24.7613 22.8184 24.6813 22.3277 24.692 21.7517C24.7133 20.685 24.756 19.6237 24.82 18.5677C24.8946 17.5116 25.0386 16.4503 25.252 15.3836L27.444 15.3996C27.3907 16.3916 27.364 17.3943 27.364 18.4076C27.364 19.421 27.38 20.4557 27.412 21.5117C27.4227 21.8531 27.508 22.0931 27.668 22.2317C27.828 22.3597 28.0147 22.4237 28.228 22.4237C28.292 22.4237 28.3827 22.4184 28.5 22.4077C28.628 22.3971 28.756 22.3864 28.884 22.3757C29.0227 22.3544 29.156 22.3331 29.2841 22.3117C29.4121 22.2797 29.5081 22.2531 29.5721 22.2317C29.5721 21.677 29.5827 21.085 29.6041 20.4557C29.6361 19.8263 29.6734 19.2077 29.7161 18.5997C29.7694 17.981 29.8227 17.3943 29.8761 16.8396C29.9294 16.2743 29.9827 15.7783 30.0361 15.3516L32.1801 15.3676C32.0948 17.0103 32.0628 18.6477 32.0841 20.2797C32.1161 21.9011 32.1641 23.5331 32.2281 25.1758L29.4761 25.1118L29.4921 24.5998ZM36.9342 16.0876C37.1369 15.8849 37.3716 15.7569 37.6382 15.7036C37.9156 15.6396 38.1449 15.6076 38.3262 15.6076C38.6676 15.6076 39.0409 15.6716 39.4463 15.7996C39.8516 15.9169 40.2463 16.1143 40.6303 16.3916L39.7503 18.7437C39.6223 18.5837 39.4783 18.4343 39.3183 18.2956C39.1583 18.1463 38.9929 18.0183 38.8223 17.9116C38.6516 17.805 38.4809 17.7196 38.3102 17.6556C38.1396 17.5916 37.9902 17.5596 37.8622 17.5596C37.7342 17.5596 37.6062 17.5703 37.4782 17.5916C37.3609 17.613 37.2489 17.661 37.1422 17.7356C37.0462 17.7996 36.9662 17.8956 36.9022 18.0236C36.8382 18.141 36.8062 18.301 36.8062 18.5036C36.8062 18.7063 36.7955 18.9783 36.7742 19.3197C36.7635 19.661 36.7422 20.0397 36.7102 20.4557C36.6889 20.861 36.6569 21.2877 36.6142 21.7357C36.5822 22.1731 36.5449 22.5997 36.5022 23.0157C36.4702 23.4318 36.4329 23.8104 36.3902 24.1518C36.3475 24.4931 36.3102 24.7704 36.2782 24.9838L34.1662 24.9678C34.2942 21.7571 34.2782 18.5463 34.1182 15.3356L36.9662 15.3996L36.9342 16.0876ZM44.7938 16.0876C44.9964 15.8849 45.2311 15.7569 45.4978 15.7036C45.7751 15.6396 46.0044 15.6076 46.1858 15.6076C46.5271 15.6076 46.9005 15.6716 47.3058 15.7996C47.7111 15.9169 48.1058 16.1143 48.4898 16.3916L47.6098 18.7437C47.4818 18.5837 47.3378 18.4343 47.1778 18.2956C47.0178 18.1463 46.8525 18.0183 46.6818 17.9116C46.5111 17.805 46.3405 17.7196 46.1698 17.6556C45.9991 17.5916 45.8498 17.5596 45.7218 17.5596C45.5938 17.5596 45.4658 17.5703 45.3378 17.5916C45.2204 17.613 45.1084 17.661 45.0018 17.7356C44.9058 17.7996 44.8258 17.8956 44.7618 18.0236C44.6978 18.141 44.6658 18.301 44.6658 18.5036C44.6658 18.7063 44.6551 18.9783 44.6338 19.3197C44.6231 19.661 44.6017 20.0397 44.5697 20.4557C44.5484 20.861 44.5164 21.2877 44.4737 21.7357C44.4417 22.1731 44.4044 22.5997 44.3617 23.0157C44.3297 23.4318 44.2924 23.8104 44.2497 24.1518C44.2071 24.4931 44.1697 24.7704 44.1377 24.9838L42.0257 24.9678C42.1537 21.7571 42.1377 18.5463 41.9777 15.3356L44.8258 15.3996L44.7938 16.0876ZM57.7414 21.4957C57.3041 21.5597 56.9041 21.6184 56.5414 21.6717C56.1894 21.7144 55.8267 21.7517 55.4534 21.7837C55.08 21.8051 54.6693 21.8211 54.2213 21.8317C53.7733 21.8424 53.2453 21.8477 52.6373 21.8477C52.7333 22.1357 52.8666 22.3917 53.0373 22.6157C53.2186 22.8397 53.464 23.0264 53.7733 23.1757C54.0933 23.3144 54.488 23.4104 54.9573 23.4638C55.4374 23.5064 56.0294 23.4958 56.7334 23.4318L56.9414 24.6158C56.7387 24.6691 56.5094 24.7224 56.2534 24.7758C56.008 24.8291 55.7627 24.8771 55.5174 24.9198C55.272 24.9518 55.032 24.9785 54.7973 24.9998C54.5733 25.0211 54.3867 25.0318 54.2373 25.0318C53.5866 25.0318 52.9626 24.9625 52.3653 24.8238C51.7786 24.6744 51.2613 24.4184 50.8133 24.0558C50.3652 23.6824 50.0079 23.1811 49.7412 22.5517C49.4746 21.9224 49.3466 21.1277 49.3572 20.1677C49.3679 19.3783 49.4959 18.685 49.7412 18.0876C49.9866 17.4903 50.3012 16.9943 50.6853 16.5996C51.0799 16.2049 51.5119 15.9116 51.9813 15.7196C52.4613 15.5169 52.936 15.4156 53.4053 15.4156C54.0987 15.4156 54.7227 15.5169 55.2774 15.7196C55.8427 15.9223 56.3174 16.2636 56.7014 16.7436C57.0854 17.213 57.3681 17.837 57.5494 18.6157C57.7414 19.3943 57.8054 20.3544 57.7414 21.4957ZM53.6773 17.0636C53.2293 17.0743 52.8986 17.277 52.6853 17.6716C52.472 18.0556 52.3546 18.701 52.3333 19.6077C52.504 19.6183 52.824 19.6237 53.2933 19.6237C53.7627 19.613 54.3547 19.597 55.0693 19.5757C55.0693 19.2023 55.032 18.861 54.9573 18.5516C54.8933 18.2423 54.7973 17.9756 54.6693 17.7516C54.552 17.5276 54.408 17.357 54.2373 17.2396C54.0667 17.1223 53.88 17.0636 53.6773 17.0636ZM62.2119 15.7676C62.5425 15.6503 62.8839 15.5703 63.2359 15.5276C63.5986 15.4849 63.9346 15.4636 64.2439 15.4636C64.5639 15.4636 64.8893 15.5223 65.2199 15.6396C65.5506 15.7463 65.8493 15.9276 66.116 16.1836C66.3826 16.4289 66.6013 16.7543 66.772 17.1596C66.9426 17.5543 67.0226 18.0396 67.012 18.6157C66.9906 19.6823 66.9426 20.7437 66.868 21.7997C66.804 22.8557 66.6653 23.9171 66.452 24.9838L64.2599 24.9678C64.3132 23.9758 64.3399 22.9731 64.3399 21.9597C64.3399 20.9464 64.3239 19.9117 64.2919 18.8557C64.2812 18.5143 64.1959 18.2796 64.0359 18.1516C63.8759 18.013 63.6892 17.9436 63.4759 17.9436C63.4119 17.9436 63.3159 17.949 63.1879 17.9596C63.0706 17.9703 62.9426 17.9863 62.8039 18.0076C62.6759 18.0183 62.5479 18.0396 62.4199 18.0716C62.2919 18.093 62.1959 18.1143 62.1319 18.1356C62.1319 18.701 62.1159 19.2983 62.0839 19.9277C62.0625 20.5464 62.0252 21.165 61.9719 21.7837C61.9292 22.3917 61.8759 22.9784 61.8119 23.5438C61.7585 24.0984 61.7105 24.5891 61.6679 25.0158L59.5238 24.9998C59.6091 23.3571 59.6358 21.725 59.6038 20.1037C59.5825 18.4716 59.5398 16.8343 59.4758 15.1916L62.2279 15.2556L62.2119 15.7676ZM69.574 15.4636C69.574 15.2716 69.574 15.0636 69.574 14.8396C69.5847 14.6156 69.5954 14.3969 69.606 14.1836C69.6167 13.9596 69.6274 13.7569 69.638 13.5755C69.6487 13.3835 69.6594 13.2289 69.67 13.1115L72.4061 13.1595L72.3421 15.4636L74.2141 15.4476L74.2621 17.8156L72.3261 17.8476C72.3261 17.9756 72.3261 18.1623 72.3261 18.4076C72.3261 18.6423 72.3261 18.909 72.3261 19.2077C72.3368 19.5063 72.3421 19.821 72.3421 20.1517C72.3421 20.4824 72.3421 20.797 72.3421 21.0957C72.3528 21.3944 72.3581 21.6664 72.3581 21.9117C72.3688 22.1464 72.3794 22.3277 72.3901 22.4557C72.4114 22.8611 72.4861 23.1384 72.6141 23.2877C72.7421 23.4371 72.9128 23.5118 73.1261 23.5118C73.3394 23.5118 73.5474 23.4958 73.7501 23.4638C73.9635 23.4318 74.1768 23.3944 74.3901 23.3518L74.4701 24.7278C73.5741 24.9731 72.8381 25.0958 72.2621 25.0958C71.4621 25.0958 70.8434 24.8771 70.406 24.4398C69.9687 23.9918 69.7127 23.2984 69.638 22.3597C69.6167 22.1357 69.6007 21.8317 69.59 21.4477C69.59 21.053 69.5847 20.637 69.574 20.1997C69.5634 19.7623 69.558 19.341 69.558 18.9357C69.558 18.5196 69.558 18.1783 69.558 17.9116L68.182 17.9276V15.4636H69.574ZM81.7753 21.1277C81.8606 21.3517 81.962 21.581 82.0793 21.8157C82.2073 22.0504 82.3566 22.2584 82.5273 22.4397C82.698 22.6211 82.9006 22.7704 83.1353 22.8877C83.3807 23.0051 83.6633 23.0637 83.9833 23.0637C84.1113 23.0637 84.2607 23.0531 84.4313 23.0317C84.6127 22.9997 84.7833 22.9464 84.9434 22.8717C85.1034 22.7864 85.2367 22.6744 85.3434 22.5357C85.4607 22.3971 85.5194 22.2157 85.5194 21.9917C85.5194 21.7037 85.4234 21.4477 85.2314 21.2237C85.05 20.9997 84.8313 20.8024 84.5753 20.6317C84.3193 20.4504 84.058 20.301 83.7913 20.1837C83.5247 20.0557 83.3113 19.949 83.1513 19.8637C82.6286 19.5863 82.1913 19.309 81.8393 19.0317C81.4873 18.7543 81.1993 18.4716 80.9753 18.1836C80.7619 17.8956 80.6073 17.5916 80.5113 17.2716C80.4153 16.9516 80.3673 16.6103 80.3673 16.2476C80.3673 15.7996 80.4526 15.3889 80.6233 15.0156C80.8046 14.6316 81.0553 14.3009 81.3753 14.0236C81.7059 13.7462 82.106 13.5329 82.5753 13.3835C83.0553 13.2235 83.5993 13.1435 84.2073 13.1435C84.346 13.1435 84.5487 13.1542 84.8153 13.1755C85.082 13.1969 85.37 13.2502 85.6794 13.3355C85.9994 13.4102 86.3247 13.5329 86.6554 13.7035C86.9861 13.8636 87.2847 14.0876 87.5514 14.3756C87.8181 14.6529 88.0368 15.0049 88.2074 15.4316C88.3781 15.8583 88.4634 16.3703 88.4634 16.9676H86.5754C86.5541 16.7543 86.5007 16.5409 86.4154 16.3276C86.33 16.1143 86.2074 15.9223 86.0474 15.7516C85.8874 15.5809 85.6847 15.4423 85.4394 15.3356C85.2047 15.2289 84.9274 15.1756 84.6073 15.1756C84.1913 15.1756 83.8767 15.2929 83.6633 15.5276C83.4607 15.7516 83.37 16.0716 83.3913 16.4876C83.402 16.7009 83.434 16.8876 83.4873 17.0476C83.5513 17.2076 83.658 17.3676 83.8073 17.5276C83.9673 17.677 84.1807 17.837 84.4473 18.0076C84.714 18.1783 85.066 18.381 85.5034 18.6157C86.1007 18.9463 86.5754 19.261 86.9274 19.5597C87.2794 19.8477 87.5461 20.1357 87.7274 20.4237C87.9194 20.7117 88.0421 20.9997 88.0954 21.2877C88.1488 21.5757 88.1754 21.8797 88.1754 22.1997C88.1754 22.5837 88.0794 22.9517 87.8874 23.3038C87.7061 23.6451 87.4501 23.9491 87.1194 24.2158C86.7887 24.4718 86.3994 24.6798 85.9514 24.8398C85.5034 24.9891 85.018 25.0638 84.4953 25.0638C83.258 25.0638 82.266 24.7598 81.5193 24.1518C80.7726 23.5331 80.3033 22.5731 80.1112 21.2717L81.7753 21.1277ZM94.0193 15.3836C94.7553 15.3836 95.39 15.5223 95.9233 15.7996C96.4673 16.0769 96.9154 16.4449 97.2674 16.9036C97.6194 17.3623 97.8807 17.8903 98.0514 18.4876C98.222 19.0743 98.3074 19.6877 98.3074 20.3277C98.3074 20.9677 98.222 21.581 98.0514 22.1677C97.8807 22.7544 97.6194 23.2717 97.2674 23.7198C96.9154 24.1678 96.4673 24.5251 95.9233 24.7918C95.39 25.0585 94.7553 25.1918 94.0193 25.1918C93.2833 25.1918 92.6539 25.0478 92.1313 24.7598C91.6192 24.4718 91.1979 24.0984 90.8672 23.6398C90.5366 23.1704 90.2965 22.6477 90.1472 22.0717C89.9979 21.485 89.9232 20.9037 89.9232 20.3277C89.9232 19.7303 89.9925 19.1383 90.1312 18.5516C90.2699 17.965 90.4992 17.437 90.8192 16.9676C91.1392 16.4983 91.5606 16.1196 92.0833 15.8316C92.6059 15.5329 93.2513 15.3836 94.0193 15.3836ZM92.6273 20.7437C92.6273 20.989 92.6486 21.2397 92.6913 21.4957C92.7446 21.7411 92.8246 21.9704 92.9313 22.1837C93.0486 22.3864 93.1926 22.5571 93.3633 22.6957C93.5446 22.8237 93.7633 22.8877 94.0193 22.8877C94.4033 22.8877 94.7286 22.7117 94.9953 22.3597C95.2727 22.0077 95.4113 21.469 95.4113 20.7437C95.4113 19.8797 95.2993 19.2557 95.0753 18.8717C94.862 18.4876 94.51 18.2956 94.0193 18.2956C93.5393 18.2956 93.1873 18.5196 92.9633 18.9677C92.7393 19.405 92.6273 19.997 92.6273 20.7437ZM106.476 18.1996C105.804 18.1996 105.233 18.2583 104.764 18.3756C104.295 18.493 103.911 18.6477 103.612 18.8397C103.313 19.0317 103.089 19.2557 102.94 19.5117C102.791 19.757 102.7 20.0077 102.668 20.2637C102.54 21.2984 102.801 22.0931 103.452 22.6477C104.103 23.2024 105.127 23.4691 106.524 23.4478L106.604 24.9358C106.338 24.9571 106.082 24.9731 105.836 24.9838C105.601 24.9945 105.377 24.9998 105.164 24.9998C104.332 24.9998 103.569 24.9091 102.876 24.7278C102.183 24.5358 101.585 24.2424 101.084 23.8478C100.593 23.4531 100.209 22.9517 99.932 22.3437C99.6654 21.7251 99.532 20.989 99.532 20.1357C99.532 19.1757 99.7294 18.3756 100.124 17.7356C100.519 17.085 101.041 16.5729 101.692 16.1996C102.343 15.8263 103.079 15.5863 103.9 15.4796C104.732 15.3729 105.58 15.3836 106.444 15.5116L106.476 18.1996ZM108.657 24.9678C108.657 24.3598 108.652 23.7784 108.641 23.2237C108.641 22.6691 108.625 22.0984 108.593 21.5117C108.572 20.9144 108.535 20.2744 108.481 19.5917C108.439 18.909 108.38 18.1356 108.305 17.2716L111.281 17.1596C111.303 18.045 111.308 18.8503 111.297 19.5757C111.287 20.2904 111.265 20.9624 111.233 21.5917C111.201 22.2104 111.153 22.8024 111.089 23.3678C111.036 23.9331 110.972 24.5038 110.897 25.0798L108.657 24.9678ZM108.353 15.9756L108.337 13.1435L111.169 13.2075L111.153 15.9916L108.353 15.9756ZM120.351 24.9838H118.223L118.047 24.1198C117.877 24.3864 117.604 24.5998 117.231 24.7598C116.868 24.9198 116.511 24.9998 116.159 24.9998C115.562 24.9998 115.05 24.8985 114.623 24.6958C114.196 24.4824 113.844 24.2104 113.567 23.8798C113.29 23.5384 113.082 23.1597 112.943 22.7437C112.815 22.3171 112.751 21.8957 112.751 21.4797C112.751 21.0637 112.82 20.6584 112.959 20.2637C113.098 19.8583 113.306 19.501 113.583 19.1917C113.871 18.8717 114.234 18.621 114.671 18.4396C115.108 18.2476 115.631 18.1516 116.239 18.1516C116.58 18.1516 116.9 18.1943 117.199 18.2796C117.508 18.3543 117.802 18.493 118.079 18.6957C118.047 18.1943 117.845 17.8476 117.471 17.6556C117.098 17.453 116.65 17.3516 116.127 17.3516C115.775 17.3516 115.407 17.3836 115.023 17.4476C114.65 17.5116 114.287 17.6023 113.935 17.7196L113.615 16.4076C114.063 16.0449 114.591 15.7623 115.199 15.5596C115.818 15.3569 116.447 15.2556 117.087 15.2556C117.535 15.2556 117.962 15.3249 118.367 15.4636C118.773 15.6023 119.125 15.8209 119.423 16.1196C119.722 16.4076 119.957 16.7863 120.127 17.2556C120.309 17.7143 120.399 18.2636 120.399 18.9037L120.351 24.9838ZM115.167 21.2557C115.167 21.4157 115.183 21.581 115.215 21.7517C115.258 21.9224 115.327 22.0771 115.423 22.2157C115.519 22.3437 115.642 22.4557 115.791 22.5517C115.951 22.6371 116.154 22.6797 116.399 22.6797C116.655 22.6797 116.868 22.6424 117.039 22.5677C117.22 22.4824 117.364 22.3757 117.471 22.2477C117.588 22.1197 117.668 21.9704 117.711 21.7997C117.765 21.629 117.791 21.4477 117.791 21.2557C117.791 20.701 117.668 20.301 117.423 20.0557C117.178 19.7997 116.836 19.6717 116.399 19.6717C116.154 19.6717 115.951 19.7197 115.791 19.8157C115.631 19.9117 115.503 20.0343 115.407 20.1837C115.322 20.333 115.258 20.5037 115.215 20.6957C115.183 20.877 115.167 21.0637 115.167 21.2557ZM125.395 13.0955C125.502 15.3249 125.481 17.4156 125.331 19.3677C125.182 21.309 124.894 23.1971 124.467 25.0318L122.611 24.8238C122.696 23.8211 122.755 22.8397 122.787 21.8797C122.819 20.9197 122.819 19.965 122.787 19.0157C122.755 18.0556 122.691 17.0956 122.595 16.1356C122.51 15.1756 122.398 14.1996 122.259 13.2075L125.395 13.0955ZM17.352 37.128C17.4374 37.352 17.5387 37.5814 17.6561 37.8161C17.7841 38.0507 17.9334 38.2587 18.1041 38.4401C18.2747 38.6214 18.4774 38.7707 18.7121 38.8881C18.9574 39.0054 19.2401 39.0641 19.5601 39.0641C19.6881 39.0641 19.8374 39.0534 20.0081 39.0321C20.1894 39.0001 20.3601 38.9467 20.5201 38.8721C20.6801 38.7867 20.8135 38.6747 20.9201 38.5361C21.0375 38.3974 21.0961 38.2161 21.0961 37.9921C21.0961 37.7041 21.0001 37.448 20.8081 37.224C20.6268 37 20.4081 36.8027 20.1521 36.632C19.8961 36.4507 19.6348 36.3014 19.3681 36.184C19.1014 36.056 18.8881 35.9494 18.7281 35.864C18.2054 35.5867 17.7681 35.3093 17.4161 35.032C17.064 34.7547 16.776 34.472 16.552 34.184C16.3387 33.896 16.184 33.592 16.088 33.272C15.992 32.952 15.944 32.6106 15.944 32.2479C15.944 31.7999 16.0294 31.3893 16.2 31.0159C16.3814 30.6319 16.632 30.3012 16.952 30.0239C17.2827 29.7466 17.6827 29.5332 18.1521 29.3839C18.6321 29.2239 19.1761 29.1439 19.7841 29.1439C19.9228 29.1439 20.1254 29.1545 20.3921 29.1759C20.6588 29.1972 20.9468 29.2505 21.2561 29.3359C21.5761 29.4105 21.9015 29.5332 22.2322 29.7039C22.5628 29.8639 22.8615 30.0879 23.1282 30.3759C23.3948 30.6532 23.6135 31.0052 23.7842 31.4319C23.9549 31.8586 24.0402 32.3706 24.0402 32.968H22.1522C22.1308 32.7546 22.0775 32.5413 21.9921 32.3279C21.9068 32.1146 21.7841 31.9226 21.6241 31.7519C21.4641 31.5813 21.2615 31.4426 21.0161 31.3359C20.7815 31.2293 20.5041 31.1759 20.1841 31.1759C19.7681 31.1759 19.4534 31.2933 19.2401 31.5279C19.0374 31.7519 18.9468 32.0719 18.9681 32.4879C18.9788 32.7013 19.0108 32.888 19.0641 33.048C19.1281 33.208 19.2348 33.368 19.3841 33.528C19.5441 33.6773 19.7574 33.8373 20.0241 34.008C20.2908 34.1786 20.6428 34.3813 21.0801 34.616C21.6775 34.9467 22.1522 35.2613 22.5042 35.56C22.8562 35.848 23.1228 36.136 23.3042 36.424C23.4962 36.712 23.6188 37 23.6722 37.288C23.7255 37.5761 23.7522 37.8801 23.7522 38.2001C23.7522 38.5841 23.6562 38.9521 23.4642 39.3041C23.2828 39.6454 23.0268 39.9494 22.6962 40.2161C22.3655 40.4721 21.9761 40.6801 21.5281 40.8401C21.0801 40.9895 20.5948 41.0641 20.0721 41.0641C18.8347 41.0641 17.8427 40.7601 17.096 40.1521C16.3494 39.5334 15.88 38.5734 15.688 37.272L17.352 37.128ZM28.604 29.0959C28.6254 29.6079 28.6414 30.1146 28.652 30.6159C28.6627 31.1066 28.668 31.5919 28.668 32.0719C28.892 32.0186 29.1534 31.9813 29.4521 31.9599C29.7614 31.9279 30.0227 31.9119 30.2361 31.9119C30.6841 31.9119 31.1001 31.9653 31.4841 32.0719C31.8788 32.1679 32.2148 32.3386 32.4921 32.5839C32.7801 32.8293 32.9988 33.1546 33.1481 33.56C33.2975 33.9546 33.3561 34.456 33.3241 35.064C33.2708 36.0667 33.1855 37.08 33.0681 38.1041C32.9508 39.1281 32.8121 40.1201 32.6521 41.0801L30.3801 40.7281C30.4547 39.8214 30.5027 38.9201 30.5241 38.0241C30.5561 37.1174 30.5827 36.2107 30.6041 35.304C30.6041 35.112 30.5721 34.952 30.5081 34.824C30.4547 34.696 30.3747 34.5947 30.2681 34.52C30.1614 34.4453 30.0387 34.3973 29.9001 34.376C29.7721 34.344 29.6387 34.328 29.5001 34.328C29.4254 34.328 29.2867 34.3333 29.084 34.344C28.892 34.3546 28.732 34.3707 28.604 34.392C28.476 36.696 28.1667 38.9094 27.676 41.0321L25.82 40.8241C25.9053 39.8214 25.964 38.8401 25.996 37.8801C26.028 36.92 26.028 35.9654 25.996 35.016C25.964 34.056 25.9 33.096 25.804 32.1359C25.7186 31.1759 25.6066 30.1999 25.468 29.2079L28.604 29.0959ZM42.4277 40.9841H40.2997L40.1237 40.1201C39.953 40.3868 39.681 40.6001 39.3076 40.7601C38.945 40.9201 38.5876 41.0001 38.2356 41.0001C37.6383 41.0001 37.1263 40.8988 36.6996 40.6961C36.2729 40.4828 35.9209 40.2108 35.6436 39.8801C35.3662 39.5388 35.1582 39.1601 35.0195 38.7441C34.8915 38.3174 34.8275 37.8961 34.8275 37.48C34.8275 37.064 34.8969 36.6587 35.0355 36.264C35.1742 35.8587 35.3822 35.5013 35.6596 35.192C35.9476 34.872 36.3102 34.6213 36.7476 34.44C37.1849 34.248 37.7076 34.152 38.3156 34.152C38.657 34.152 38.977 34.1946 39.2756 34.28C39.585 34.3546 39.8783 34.4933 40.1557 34.696C40.1237 34.1946 39.921 33.848 39.5476 33.656C39.1743 33.4533 38.7263 33.352 38.2036 33.352C37.8516 33.352 37.4836 33.384 37.0996 33.448C36.7263 33.512 36.3636 33.6026 36.0116 33.72L35.6916 32.4079C36.1396 32.0453 36.6676 31.7626 37.2756 31.5599C37.8943 31.3573 38.5236 31.2559 39.1636 31.2559C39.6116 31.2559 40.0383 31.3253 40.4437 31.4639C40.849 31.6026 41.201 31.8213 41.4997 32.1199C41.7984 32.4079 42.033 32.7866 42.2037 33.256C42.385 33.7146 42.4757 34.264 42.4757 34.904L42.4277 40.9841ZM37.2436 37.256C37.2436 37.416 37.2596 37.5814 37.2916 37.7521C37.3343 37.9227 37.4036 38.0774 37.4996 38.2161C37.5956 38.3441 37.7183 38.4561 37.8676 38.5521C38.0276 38.6374 38.2303 38.6801 38.4756 38.6801C38.7316 38.6801 38.945 38.6427 39.1156 38.5681C39.297 38.4827 39.441 38.3761 39.5476 38.2481C39.665 38.1201 39.745 37.9707 39.7876 37.8001C39.841 37.6294 39.8676 37.448 39.8676 37.256C39.8676 36.7014 39.745 36.3014 39.4996 36.056C39.2543 35.8 38.913 35.672 38.4756 35.672C38.2303 35.672 38.0276 35.72 37.8676 35.816C37.7076 35.912 37.5796 36.0347 37.4836 36.184C37.3983 36.3334 37.3343 36.504 37.2916 36.696C37.2596 36.8774 37.2436 37.064 37.2436 37.256ZM47.2157 32.0879C47.4184 31.8853 47.653 31.7573 47.9197 31.7039C48.197 31.6399 48.4264 31.6079 48.6077 31.6079C48.9491 31.6079 49.3224 31.6719 49.7277 31.7999C50.1331 31.9173 50.5278 32.1146 50.9118 32.3919L50.0317 34.744C49.9037 34.584 49.7597 34.4347 49.5997 34.296C49.4397 34.1466 49.2744 34.0186 49.1037 33.912C48.933 33.8053 48.7624 33.72 48.5917 33.656C48.421 33.592 48.2717 33.56 48.1437 33.56C48.0157 33.56 47.8877 33.5706 47.7597 33.592C47.6424 33.6133 47.5304 33.6613 47.4237 33.736C47.3277 33.8 47.2477 33.896 47.1837 34.024C47.1197 34.1413 47.0877 34.3013 47.0877 34.504C47.0877 34.7067 47.077 34.9787 47.0557 35.32C47.045 35.6613 47.0237 36.04 46.9917 36.456C46.9703 36.8614 46.9383 37.288 46.8957 37.7361C46.8637 38.1734 46.8263 38.6001 46.7837 39.0161C46.7517 39.4321 46.7143 39.8108 46.6717 40.1521C46.629 40.4934 46.5917 40.7708 46.5597 40.9841L44.4476 40.9681C44.5756 37.7574 44.5596 34.5467 44.3996 31.3359L47.2477 31.3999L47.2157 32.0879ZM60.1633 37.496C59.726 37.5601 59.326 37.6187 58.9633 37.6721C58.6113 37.7147 58.2486 37.7521 57.8753 37.7841C57.5019 37.8054 57.0913 37.8214 56.6433 37.8321C56.1952 37.8427 55.6672 37.8481 55.0592 37.8481C55.1552 38.1361 55.2886 38.3921 55.4592 38.6161C55.6406 38.8401 55.8859 39.0267 56.1952 39.1761C56.5153 39.3148 56.9099 39.4108 57.3793 39.4641C57.8593 39.5068 58.4513 39.4961 59.1553 39.4321L59.3633 40.6161C59.1606 40.6694 58.9313 40.7228 58.6753 40.7761C58.43 40.8295 58.1846 40.8775 57.9393 40.9201C57.6939 40.9521 57.4539 40.9788 57.2193 41.0001C56.9953 41.0215 56.8086 41.0321 56.6593 41.0321C56.0086 41.0321 55.3846 40.9628 54.7872 40.8241C54.2005 40.6748 53.6832 40.4188 53.2352 40.0561C52.7872 39.6828 52.4298 39.1814 52.1632 38.5521C51.8965 37.9227 51.7685 37.128 51.7792 36.168C51.7898 35.3787 51.9178 34.6853 52.1632 34.088C52.4085 33.4906 52.7232 32.9946 53.1072 32.5999C53.5019 32.2053 53.9339 31.9119 54.4032 31.7199C54.8832 31.5173 55.3579 31.4159 55.8272 31.4159C56.5206 31.4159 57.1446 31.5173 57.6993 31.7199C58.2646 31.9226 58.7393 32.2639 59.1233 32.7439C59.5073 33.2133 59.79 33.8373 59.9713 34.616C60.1633 35.3947 60.2273 36.3547 60.1633 37.496ZM56.0992 33.064C55.6512 33.0746 55.3206 33.2773 55.1072 33.672C54.8939 34.056 54.7765 34.7013 54.7552 35.608C54.9259 35.6187 55.2459 35.624 55.7152 35.624C56.1846 35.6133 56.7766 35.5973 57.4913 35.576C57.4913 35.2027 57.4539 34.8613 57.3793 34.552C57.3153 34.2426 57.2193 33.976 57.0913 33.752C56.9739 33.528 56.8299 33.3573 56.6593 33.24C56.4886 33.1226 56.3019 33.064 56.0992 33.064ZM69.5503 29.0959C69.6569 31.3253 69.6356 33.416 69.4863 35.368C69.3369 37.3094 69.0489 39.1974 68.6223 41.0321L66.7662 40.8241C66.8516 39.8214 66.9102 38.8401 66.9422 37.8801C66.9742 36.92 66.9742 35.9654 66.9422 35.016C66.9102 34.056 66.8462 33.096 66.7502 32.1359C66.6649 31.1759 66.5529 30.1999 66.4142 29.2079L69.5503 29.0959ZM74.4153 31.7039C74.6286 31.6399 74.8419 31.5919 75.0553 31.5599C75.2793 31.5279 75.4766 31.5119 75.6473 31.5119C75.9566 31.5119 76.2713 31.5599 76.5913 31.6559C76.922 31.7413 77.226 31.8959 77.5033 32.1199C77.7913 31.9279 78.0847 31.7786 78.3833 31.6719C78.6927 31.5653 79.0127 31.5119 79.3434 31.5119C79.77 31.5119 80.1754 31.5706 80.5594 31.6879C80.9434 31.7946 81.2741 31.9759 81.5514 32.2319C81.8394 32.4773 82.0581 32.8026 82.2074 33.208C82.3674 33.6026 82.4421 34.088 82.4314 34.664C82.4101 35.7307 82.3674 36.7974 82.3034 37.8641C82.2394 38.9307 82.1328 39.9974 81.9834 41.0641L79.8394 41.0481C79.8714 39.9921 79.8714 38.9574 79.8394 37.9441C79.8074 36.9307 79.7647 35.9173 79.7114 34.904C79.69 34.5627 79.5994 34.328 79.4394 34.2C79.29 34.072 79.1034 34.008 78.8793 34.008C78.73 34.008 78.5753 34.024 78.4153 34.056C78.426 35.24 78.3833 36.44 78.2873 37.6561C78.202 38.8614 78.106 39.9974 77.9993 41.0641L75.7593 41.0481C75.7806 40.0134 75.7859 38.9894 75.7753 37.9761C75.7753 36.9627 75.7486 35.9387 75.6953 34.904C75.6739 34.5733 75.5833 34.344 75.4233 34.216C75.2633 34.0773 75.0766 34.008 74.8633 34.008C74.7033 34.008 74.5273 34.0346 74.3353 34.088C74.3459 35.272 74.3139 36.4507 74.2393 37.6241C74.1646 38.7867 74.0686 39.9441 73.9512 41.0961L71.7272 41.0801C71.7912 39.4268 71.8125 37.7894 71.7912 36.168C71.7805 34.536 71.7432 32.8933 71.6792 31.2399L74.4313 31.3039L74.4153 31.7039ZM91.4756 40.9841H89.3476L89.1716 40.1201C89.0009 40.3868 88.7289 40.6001 88.3555 40.7601C87.9929 40.9201 87.6355 41.0001 87.2835 41.0001C86.6862 41.0001 86.1742 40.8988 85.7475 40.6961C85.3208 40.4828 84.9688 40.2108 84.6915 39.8801C84.4141 39.5388 84.2061 39.1601 84.0675 38.7441C83.9395 38.3174 83.8755 37.8961 83.8755 37.48C83.8755 37.064 83.9448 36.6587 84.0835 36.264C84.2221 35.8587 84.4301 35.5013 84.7075 35.192C84.9955 34.872 85.3582 34.6213 85.7955 34.44C86.2328 34.248 86.7555 34.152 87.3635 34.152C87.7049 34.152 88.0249 34.1946 88.3235 34.28C88.6329 34.3546 88.9262 34.4933 89.2036 34.696C89.1716 34.1946 88.9689 33.848 88.5956 33.656C88.2222 33.4533 87.7742 33.352 87.2515 33.352C86.8995 33.352 86.5315 33.384 86.1475 33.448C85.7742 33.512 85.4115 33.6026 85.0595 33.72L84.7395 32.4079C85.1875 32.0453 85.7155 31.7626 86.3235 31.5599C86.9422 31.3573 87.5715 31.2559 88.2115 31.2559C88.6596 31.2559 89.0862 31.3253 89.4916 31.4639C89.8969 31.6026 90.2489 31.8213 90.5476 32.1199C90.8463 32.4079 91.0809 32.7866 91.2516 33.256C91.4329 33.7146 91.5236 34.264 91.5236 34.904L91.4756 40.9841ZM86.2915 37.256C86.2915 37.416 86.3075 37.5814 86.3395 37.7521C86.3822 37.9227 86.4515 38.0774 86.5475 38.2161C86.6435 38.3441 86.7662 38.4561 86.9155 38.5521C87.0755 38.6374 87.2782 38.6801 87.5235 38.6801C87.7795 38.6801 87.9929 38.6427 88.1635 38.5681C88.3449 38.4827 88.4889 38.3761 88.5956 38.2481C88.7129 38.1201 88.7929 37.9707 88.8356 37.8001C88.8889 37.6294 88.9156 37.448 88.9156 37.256C88.9156 36.7014 88.7929 36.3014 88.5476 36.056C88.3022 35.8 87.9609 35.672 87.5235 35.672C87.2782 35.672 87.0755 35.72 86.9155 35.816C86.7555 35.912 86.6275 36.0347 86.5315 36.184C86.4462 36.3334 86.3822 36.504 86.3395 36.696C86.3075 36.8774 86.2915 37.064 86.2915 37.256ZM101.288 40.9841C101.256 41.5281 101.117 41.9975 100.872 42.3922C100.637 42.7868 100.322 43.1122 99.9277 43.3682C99.5437 43.6242 99.0903 43.8108 98.5676 43.9282C98.0556 44.0562 97.5116 44.1202 96.9356 44.1202C96.5303 44.1202 96.1036 44.0829 95.6556 44.0082C95.2076 43.9442 94.7436 43.8535 94.2635 43.7362L94.2955 42.2802C94.4876 42.3122 94.7329 42.3335 95.0316 42.3442C95.3302 42.3655 95.6449 42.3655 95.9756 42.3442C96.3063 42.3228 96.6369 42.2748 96.9676 42.2001C97.3089 42.1361 97.613 42.0295 97.8796 41.8801C98.1463 41.7415 98.365 41.5548 98.5356 41.3201C98.7063 41.0961 98.7916 40.8188 98.7916 40.4881V39.6561C98.6956 39.8161 98.5623 39.9654 98.3916 40.1041C98.2316 40.2321 98.045 40.3494 97.8316 40.4561C97.629 40.5521 97.4103 40.6268 97.1756 40.6801C96.9409 40.7335 96.7063 40.7601 96.4716 40.7601C95.8849 40.7601 95.3782 40.6321 94.9516 40.3761C94.5249 40.1094 94.1675 39.7681 93.8795 39.3521C93.6022 38.9254 93.3942 38.4507 93.2555 37.9281C93.1169 37.3947 93.0475 36.8614 93.0475 36.328C93.0475 35.784 93.1115 35.24 93.2395 34.696C93.3782 34.1413 93.5969 33.6453 93.8955 33.208C94.2049 32.7599 94.6102 32.3973 95.1116 32.1199C95.6129 31.8426 96.2316 31.7039 96.9676 31.7039C97.3409 31.7039 97.6716 31.7573 97.9596 31.8639C98.2583 31.9599 98.525 32.0933 98.7596 32.2639L98.8556 31.5279L101.576 31.5759C101.522 34.7653 101.426 37.9014 101.288 40.9841ZM95.7996 36.024C95.7996 36.28 95.8209 36.536 95.8636 36.792C95.9062 37.048 95.9756 37.2827 96.0716 37.496C96.1783 37.6987 96.3169 37.8694 96.4876 38.0081C96.6583 38.1361 96.8716 38.2001 97.1276 38.2001C97.6076 38.2001 97.981 38.0294 98.2476 37.6881C98.5143 37.3467 98.6476 36.792 98.6476 36.024C98.6476 35.6613 98.621 35.3307 98.5676 35.032C98.5143 34.7333 98.4236 34.4773 98.2956 34.264C98.1783 34.0506 98.0236 33.8853 97.8316 33.768C97.6396 33.64 97.4049 33.576 97.1276 33.576C96.8716 33.576 96.6583 33.6506 96.4876 33.8C96.3169 33.9386 96.1783 34.1253 96.0716 34.36C95.9756 34.584 95.9062 34.8453 95.8636 35.144C95.8209 35.432 95.7996 35.7253 95.7996 36.024ZM111.508 37.496C111.071 37.5601 110.671 37.6187 110.308 37.6721C109.956 37.7147 109.593 37.7521 109.22 37.7841C108.847 37.8054 108.436 37.8214 107.988 37.8321C107.54 37.8427 107.012 37.8481 106.404 37.8481C106.5 38.1361 106.633 38.3921 106.804 38.6161C106.985 38.8401 107.231 39.0267 107.54 39.1761C107.86 39.3148 108.255 39.4108 108.724 39.4641C109.204 39.5068 109.796 39.4961 110.5 39.4321L110.708 40.6161C110.505 40.6694 110.276 40.7228 110.02 40.7761C109.775 40.8295 109.529 40.8775 109.284 40.9201C109.039 40.9521 108.799 40.9788 108.564 41.0001C108.34 41.0215 108.153 41.0321 108.004 41.0321C107.353 41.0321 106.729 40.9628 106.132 40.8241C105.545 40.6748 105.028 40.4188 104.58 40.0561C104.132 39.6828 103.775 39.1814 103.508 38.5521C103.241 37.9227 103.113 37.128 103.124 36.168C103.135 35.3787 103.263 34.6853 103.508 34.088C103.753 33.4906 104.068 32.9946 104.452 32.5999C104.847 32.2053 105.279 31.9119 105.748 31.7199C106.228 31.5173 106.703 31.4159 107.172 31.4159C107.865 31.4159 108.489 31.5173 109.044 31.7199C109.609 31.9226 110.084 32.2639 110.468 32.7439C110.852 33.2133 111.135 33.8373 111.316 34.616C111.508 35.3947 111.572 36.3547 111.508 37.496ZM107.444 33.064C106.996 33.0746 106.665 33.2773 106.452 33.672C106.239 34.056 106.121 34.7013 106.1 35.608C106.271 35.6187 106.591 35.624 107.06 35.624C107.529 35.6133 108.121 35.5973 108.836 35.576C108.836 35.2027 108.799 34.8613 108.724 34.552C108.66 34.2426 108.564 33.976 108.436 33.752C108.319 33.528 108.175 33.3573 108.004 33.24C107.833 33.1226 107.647 33.064 107.444 33.064Z" fill="#FFF8F0"/>
<path fill-rule="evenodd" clip-rule="evenodd" d="M129.806 30.0807C132.918 27.9163 137.248 29.9547 137.9 33.5691C138.447 36.5741 136.702 39.2429 133.927 40.3567C131.341 41.4074 127.683 40.84 126.422 38.0872C125.16 35.3343 126.884 31.5938 129.533 30.3329C129.554 30.3122 129.574 30.2902 129.595 30.2679C129.66 30.1996 129.727 30.1282 129.806 30.0807ZM134.337 31.8374C134.301 31.289 133.835 30.8003 133.246 30.6728C132.627 30.539 132.022 30.8381 131.801 31.3589C131.775 31.4087 131.761 31.4749 131.749 31.5279L131.749 31.5279L131.749 31.5279C131.519 31.8802 131.427 32.304 131.553 32.6501C131.79 33.339 132.636 33.4247 133.244 33.1818C133.822 32.9324 134.382 32.485 134.337 31.8374ZM131.727 33.9403L131.727 33.9403C131.665 33.9554 131.604 33.9704 131.553 34.002C131.177 34.1194 131.079 34.4387 131.16 34.7399L131.099 34.9189C130.654 36.2239 130.155 37.6857 130.227 39.0547C130.267 39.6166 131.148 39.8638 131.386 39.3051C131.733 38.49 131.941 37.6188 132.15 36.7465L132.15 36.7465C132.307 36.0855 132.465 35.4239 132.684 34.7856C132.871 34.2585 132.213 33.7899 131.727 33.9403Z" fill="white"/>
</svg>
