<svg xmlns="http://www.w3.org/2000/svg" width="200" height="154" fill="none" viewBox="0 0 200 154"><path fill="#000" d="M0.777425 127.518C0.751058 136.195 1.03133 142.894 4.77547 143.768C5.2911 143.883 5.8243 143.879 6.39071 143.712C25.0258 143.442 47.8208 143.408 72.5 143.491C75.8014 143.503 79.1366 153.516 82.5 153.531C86.6274 153.55 90.7975 143.571 95 143.595C133.578 143.811 142.244 145.488 180.814 143.867C185.096 143.701 188.403 143.471 190.645 143.22C193.628 142.88 195.116 142.496 195.54 141.305C195.576 141.215 195.604 141.116 195.615 141.014C195.619 140.983 195.621 140.952 195.621 140.921C198.207 103.597 196.574 40.3791 195.54 10.7563C195.455 8.34074 194.406 5.25431 189.882 4.18595C189.083 4.00138 188.265 3.89469 187.504 3.82755C186.861 3.77067 186.26 3.74186 185.745 3.71793C120.797 0.654407 85.0997 2.17202 20.1583 4.51066C19.6856 4.4716 18.7979 4.42399 17.4513 4.38224L17.1524 4.37003C15.797 4.3151 14.3516 4.25675 13.6495 4.18742C13.4415 4.16666 13.2374 4.1879 13.0479 4.2465C12.9005 4.29191 12.7618 4.36002 12.6368 4.4484C11.3975 4.26066 10.8927 4.30973 9.7491 4.47916C9.33309 4.54508 8.82821 4.62369 8.12996 4.6984C8.11532 4.69816 8.10067 4.69425 8.08602 4.69035C8.07137 4.68644 8.05672 4.68229 8.04207 4.68204C5.78719 4.14786 3.97567 4.39298 2.66707 5.38834C0.772542 6.83121 0.60262 9.38981 0.542074 10.9137C0.278402 11.1444 0.0869954 11.4611 0.0235189 11.8127C0.00691732 11.9023 -0.000895182 11.9943 8.13802e-05 12.0876C0.239339 31.1361 0.183675 51.6003 0.119222 73.2638V73.4711C0.0303548 103.614 -0.0614421 92.7848 0.644613 123.057C0.658284 123.132 0.657308 123.191 0.670003 123.265C0.79012 123.949 0.785238 125.681 0.777425 127.518Z"/><path fill="#FFE7E7" stroke="#1F1F1F" stroke-width="3" d="M197.041 8.8086C198.076 38.4415 199.704 101.572 197.126 138.807C197.117 138.838 197.068 138.981 196.544 139.17C195.93 139.391 194.974 139.559 193.477 139.73C191.287 139.975 188.02 140.203 183.756 140.368L183.751 140.368C158.913 141.412 146.548 141.087 130.531 140.666C121.701 140.433 111.76 140.172 98.0084 140.095C96.3774 140.085 94.9681 141.03 93.8568 142.02C92.7185 143.033 91.6073 144.361 90.5884 145.578L90.5716 145.598C89.5094 146.867 88.5421 148.021 87.6004 148.868C86.6227 149.747 85.9511 150.033 85.5068 150.031C85.3732 150.03 84.9246 149.883 84.1035 148.96C83.3504 148.114 82.5758 146.957 81.7258 145.679L81.6697 145.595C80.8695 144.391 79.9978 143.08 79.1073 142.07C78.6475 141.549 78.1348 141.051 77.5698 140.676C77.0033 140.3 76.305 139.994 75.5051 139.991C50.8231 139.908 28.0175 139.942 9.36897 140.212L9.16417 140.215L8.96766 140.273C8.65868 140.364 8.38551 140.366 8.10838 140.306C7.21876 140.093 6.36467 139.124 5.8371 136.294C5.33252 133.587 5.26417 129.886 5.27742 125.523C5.2813 124.609 5.28461 123.7 5.27147 122.933C5.25922 122.219 5.23227 121.512 5.1524 121.035C5.15213 121.032 5.15181 121.029 5.15145 121.025L5.15103 121.02C5.14943 121.002 5.1467 120.973 5.14215 120.934C4.7901 105.847 4.63722 101.011 4.58345 96.1739C4.52976 91.3443 4.57488 86.5136 4.61922 71.4755V71.4711V71.2661C4.68365 49.6098 4.73936 29.1383 4.5001 10.0798C4.50075 10.0784 4.50168 10.0766 4.50299 10.0744C4.50849 10.065 4.51764 10.0533 4.52983 10.0426L5.01528 9.61783L5.04089 8.97328C5.07076 8.22142 5.12549 7.3557 5.35981 6.53028C5.59063 5.71722 5.96766 5.04522 6.57518 4.58222L6.57529 4.58214C7.40202 3.95336 8.69858 3.66839 10.6963 4.14165L10.8545 4.17913L10.8875 4.17968C10.9461 4.18869 11.0202 4.19678 11.105 4.19819L11.1975 4.19974L11.2895 4.18989C12.0212 4.1116 12.5535 4.02885 12.9764 3.96187C14.0213 3.80713 14.3687 3.77341 15.4121 3.93148L16.0095 4.02197L16.4936 3.67965C16.4954 3.67964 16.4977 3.67972 16.5006 3.68001L16.5021 3.68016C17.2443 3.75345 18.7034 3.81256 20.0111 3.86554L20.0912 3.86878L20.0917 3.8688L20.39 3.88099L20.3974 3.88129L20.4048 3.88152C21.7437 3.92303 22.6009 3.96971 23.0347 4.00556L23.1234 4.01289L23.2123 4.00969C25.822 3.9157 28.3845 3.82305 30.9034 3.73197C91.0651 1.55668 126.403 0.278961 188.675 3.21627L188.676 3.21631C189.191 3.24026 189.764 3.26789 190.372 3.32171L190.372 3.32174C191.091 3.38518 191.834 3.48356 192.541 3.64666C194.489 4.10734 195.543 4.95723 196.144 5.8216C196.766 6.71686 197.005 7.7809 197.041 8.8086ZM197.041 8.8086L198.54 8.75626M197.041 8.8086C197.041 8.80873 197.041 8.80886 197.041 8.80899L198.54 8.75626M198.54 8.75626C199.574 38.3791 201.207 101.597 198.621 138.921L198.54 8.75626ZM23.1583 2.51066C22.6856 2.4716 21.7979 2.42399 20.4513 2.38224L23.1583 2.51066ZM23.1583 2.51066C25.7709 2.41657 28.3363 2.32381 30.8581 2.23263C91.0193 0.057321 126.41 -1.22234 188.745 1.71793C189.26 1.74186 189.861 1.77067 190.504 1.82755C191.265 1.89469 192.083 2.00138 192.882 2.18595L23.1583 2.51066Z"/></svg>