<svg width="10" height="12" viewBox="0 0 10 12" fill="none" xmlns="http://www.w3.org/2000/svg">
<path fill-rule="evenodd" clip-rule="evenodd" d="M9.72426 0.995875C9.75183 1.0453 9.80698 1.07002 9.86213 1.11945C9.8897 1.14416 9.94485 1.11945 9.97243 1.14416C10 1.16887 9.94485 1.19359 10 1.19359C9.91728 1.29244 9.8897 1.3913 9.86213 1.49016C9.83456 1.66316 9.8897 1.83615 9.80698 1.98444C9.80698 1.98444 9.77941 1.98444 9.77941 2.00915C9.77941 2.03387 9.72426 2.10801 9.69669 2.18215C9.69669 2.20687 9.61396 2.23158 9.61396 2.23158C9.61396 2.25629 9.61396 2.28101 9.61396 2.30572C9.61396 2.30572 9.58639 2.30572 9.58639 2.33044C9.58639 2.37986 9.55882 2.37986 9.55882 2.40458C9.44852 2.55286 9.31065 2.72586 9.20035 2.84943C9.1452 2.92357 9.06248 3.02243 9.00733 3.09657C8.75917 3.36843 8.48343 3.665 8.23526 3.98628C8.20769 4.01099 8.18011 4.03571 8.15254 4.03571V4.08514H8.12496C8.09739 4.13457 8.12496 4.18399 8.06981 4.20871C8.06981 4.23342 8.01467 4.25814 7.98709 4.25814V4.30756H7.95952V4.35699H7.93194V4.40642C7.90437 4.43113 7.8768 4.45585 7.84922 4.48056V4.52999H7.82165V4.57942H7.79407V4.62885C7.7665 4.65356 7.71135 4.70299 7.68378 4.75242C7.6562 4.80185 7.62863 4.85127 7.60106 4.87599C7.60106 4.9007 7.54591 4.9007 7.51833 4.92542V4.97484H7.49076V5.02427H7.46319V5.0737C7.40804 5.09841 7.29774 5.2467 7.27017 5.32084C7.10472 5.54327 7.07715 5.61741 7.07715 5.69155C7.07715 5.81512 7.21502 5.96341 7.35289 6.11169C7.38046 6.13641 7.43561 6.16112 7.46319 6.18583C7.49076 6.21055 7.49076 6.25998 7.54591 6.30941C7.57348 6.33412 7.62863 6.35883 7.6562 6.38355C7.68378 6.40826 7.68378 6.40826 7.68378 6.43298C7.71135 6.45769 7.7665 6.55655 7.82165 6.63069C7.82165 6.6554 7.84922 6.63069 7.84922 6.6554V6.68012C7.8768 6.70483 7.93194 6.72954 7.95952 6.75426C7.98709 6.77897 7.98709 6.77897 7.98709 6.80369C7.98709 6.8284 8.01467 6.8284 8.01467 6.8284C8.12496 6.97669 8.20769 7.10026 8.29041 7.22383C8.31798 7.24854 8.37313 7.27325 8.4007 7.29797C8.4007 7.29797 8.37313 7.3474 8.4007 7.3474C8.511 7.42154 8.6213 7.59454 8.67645 7.71811V7.76754H8.70402V7.81696H8.73159V7.86639H8.75917V7.91582H8.78674C8.81431 7.96525 8.78674 7.98996 8.81432 8.01468C8.81432 8.03939 8.86946 8.03939 8.89704 8.03939C8.89704 8.03939 8.86946 8.08882 8.89704 8.08882C8.92461 8.11353 8.95219 8.13825 9.00733 8.21239C9.03491 8.26182 9.06248 8.31125 9.11763 8.38539C9.17278 8.45953 9.28308 8.60782 9.3658 8.73139C9.3658 8.7561 9.39337 8.7561 9.39337 8.78082C9.42095 8.80553 9.42094 8.83024 9.42094 8.85496C9.42094 8.87967 9.44852 8.90438 9.44852 8.9291C9.47609 9.00324 9.53124 9.17624 9.58639 9.29981C9.61396 9.34924 9.64154 9.39867 9.66911 9.44809C9.69669 9.57166 9.69669 9.79409 9.64154 9.89295C9.64154 9.89295 9.61396 9.89295 9.61396 9.91766C9.61396 10.0165 9.47609 10.0907 9.39337 10.1648C9.28307 10.2637 9.03491 10.4614 8.81432 10.4861C8.64887 10.4861 8.511 10.4367 8.4007 10.3625C8.37313 10.3378 8.34556 10.3131 8.31798 10.3131C8.31798 10.3131 8.26283 10.3131 8.23526 10.3131C8.20769 10.2884 8.15254 10.2389 8.09739 10.1895C7.98709 10.1154 7.93195 10.0907 7.8768 10.0165C7.84922 9.99181 7.82165 9.96709 7.79407 9.94238C7.7665 9.91766 7.71135 9.86823 7.68378 9.81881C7.6562 9.79409 7.6562 9.79409 7.6562 9.76938C7.6562 9.74466 7.54591 9.64581 7.54591 9.59638C7.54591 9.57167 7.51833 9.52224 7.46319 9.47281C7.43561 9.4481 7.40804 9.42338 7.38046 9.39867C7.35289 9.37395 7.32531 9.34924 7.29774 9.32452C7.27017 9.29981 7.27017 9.2751 7.21502 9.25038C7.18744 9.22567 7.15987 9.20095 7.1323 9.17624C7.10472 9.15153 7.07715 9.12681 7.04957 9.1021C7.022 9.07738 7.022 9.05267 6.96685 9.02796C6.93928 9.00324 6.9117 8.97853 6.88413 8.95381C6.85656 8.9291 6.82898 8.90439 6.80141 8.87967C6.77383 8.85496 6.74626 8.83024 6.71869 8.80553C6.69111 8.78081 6.66354 8.7561 6.63596 8.73139C6.80141 8.68196 6.80141 8.65724 6.77383 8.63253C6.74626 8.60782 6.71869 8.5831 6.69111 8.55839C6.66354 8.53367 6.63596 8.50896 6.60839 8.48425C6.58082 8.45953 6.55324 8.43482 6.52567 8.4101C6.49809 8.38539 6.47052 8.36068 6.44295 8.33596C6.41537 8.31125 6.3878 8.28653 6.36022 8.26182C6.33265 8.2371 6.30507 8.21239 6.2775 8.18768C6.24993 8.16296 6.22235 8.13825 6.19478 8.11353C6.1672 8.08882 6.13963 8.06411 6.11206 8.03939C6.05691 7.98996 6.00176 7.91582 5.91904 7.84168C5.86389 7.79225 5.83632 7.71811 5.78117 7.66868C5.75359 7.64397 5.75359 7.66868 5.75359 7.64397C5.75359 7.59454 5.6433 7.59454 5.61572 7.5204C5.45028 7.5204 5.4227 7.64397 5.33998 7.74282C5.31241 7.76754 5.28483 7.79225 5.25726 7.79225C5.22969 7.81697 5.22969 7.84168 5.22969 7.86639C5.20211 7.89111 5.17454 7.89111 5.14696 7.91582V7.96525C5.11939 7.98996 5.09182 8.01468 5.06424 8.03939C5.03667 8.08882 4.98152 8.13825 4.8988 8.2371C4.87122 8.26182 4.84365 8.26182 4.81607 8.28653C4.7885 8.31125 4.7885 8.33596 4.7885 8.36067C4.76093 8.38539 4.73335 8.38539 4.70578 8.4101C4.67821 8.43482 4.59548 8.53367 4.54033 8.60782C4.51276 8.63253 4.48519 8.63253 4.45761 8.65724V8.70667H4.43004C4.40246 8.73139 4.40246 8.7561 4.40246 8.78082C4.37489 8.80553 4.34732 8.80553 4.31974 8.83024C4.29217 8.85496 4.29217 8.87967 4.29217 8.90439C4.26459 8.9291 4.23702 8.9291 4.20944 8.9291C4.18187 8.95381 4.18187 8.97853 4.18187 9.00324C4.1543 9.02796 4.07158 9.05267 4.01643 9.1021V9.15153C3.98885 9.17624 3.9337 9.17624 3.90613 9.20095V9.25038C3.87856 9.2751 3.82341 9.2751 3.79583 9.29981V9.34924C3.65796 9.42338 3.52009 9.59638 3.4098 9.71995C3.38222 9.74467 3.38222 9.76938 3.38222 9.79409C3.38222 9.79409 3.32707 9.81881 3.2995 9.81881C3.27193 9.84352 3.27193 9.86823 3.27193 9.89295C3.21678 9.94238 3.1892 9.99181 3.10648 10.0907C3.07891 10.1401 3.05133 10.1895 3.02376 10.2142C3.02376 10.2389 2.96861 10.2389 2.94104 10.2637V10.3131C2.91346 10.3378 2.83074 10.3872 2.77559 10.4367C2.74802 10.4614 2.72044 10.4614 2.69287 10.4861V10.5355C2.6653 10.5602 2.63772 10.5849 2.61015 10.6097C2.58257 10.6344 2.555 10.6344 2.52743 10.6591C2.49985 10.6838 2.49985 10.7085 2.49985 10.7332C2.49985 10.7579 2.47228 10.7332 2.47228 10.7579C2.47228 10.8321 2.27926 10.9309 2.19654 11.0051C2.11382 11.0792 2.05867 11.1534 1.97595 11.2275C1.9208 11.2769 1.8105 11.3017 1.7002 11.3511C1.61748 11.4005 1.53476 11.4499 1.47961 11.4747C1.42446 11.4994 1.42446 11.5241 1.36932 11.5488C1.28659 11.5735 1.03843 11.6724 0.928131 11.6724C0.845409 11.6724 0.652391 11.6229 0.569668 11.5735C0.542094 11.5488 0.514519 11.5241 0.486945 11.5241C0.486945 11.5241 0.431797 11.5241 0.404223 11.5241L0.37665 11.4747C0.321501 11.4499 0.183631 11.4005 0.128483 11.3264C0.128483 11.3264 0.156057 11.2769 0.128483 11.2769H0.100909V11.2275C0.0733349 11.2028 0.045761 11.1781 0.0181869 11.1039C-0.0369612 10.9804 0.0457608 10.8074 0.100909 10.6344C0.128483 10.5849 0.18363 10.4861 0.211205 10.4367C0.238779 10.4119 0.266354 10.4119 0.293928 10.3872C0.349076 10.3378 0.376649 10.2884 0.404223 10.2637C0.486946 10.1648 0.51452 10.0659 0.597242 9.96709C0.624816 9.94238 0.65239 9.91766 0.679964 9.91766C0.707538 9.89295 0.707539 9.86824 0.707539 9.84352C0.735113 9.79409 0.817835 9.76938 0.872983 9.74467C0.900557 9.71995 0.900556 9.69524 0.900556 9.67052C0.92813 9.64581 0.955705 9.64581 0.983279 9.62109C1.01085 9.59638 1.01085 9.57167 1.01085 9.54695C1.03843 9.52224 1.066 9.52224 1.09358 9.49752C1.12115 9.4481 1.1763 9.39867 1.20387 9.37395C1.23145 9.34924 1.25902 9.34924 1.28659 9.32452C1.31417 9.29981 1.34174 9.25038 1.36932 9.22567C1.36932 9.20096 1.36932 9.17624 1.36932 9.17624C1.36932 9.15153 1.42446 9.12681 1.45204 9.12681C1.47961 9.1021 1.47961 9.07738 1.47961 9.05267C1.50719 9.02796 1.53476 9.00324 1.56233 9.00324C1.58991 8.95381 1.61748 8.87967 1.64506 8.83024C1.64506 8.80553 1.7002 8.78082 1.72778 8.78082C1.75535 8.7561 1.75535 8.73139 1.75535 8.70667C1.83808 8.60782 1.9208 8.53367 2.00352 8.43482C2.08624 8.33596 2.16896 8.26182 2.25169 8.16296C2.27926 8.13825 2.30683 8.11353 2.33441 8.11353C2.36198 8.08882 2.36198 8.06411 2.36198 8.03939C2.38956 8.01468 2.41713 8.01468 2.4447 7.98996C2.47228 7.94054 2.52743 7.91582 2.555 7.86639C2.58257 7.84168 2.58258 7.81697 2.58258 7.79225C2.58258 7.76754 2.63772 7.74282 2.6653 7.74282C2.69287 7.71811 2.69287 7.69339 2.69287 7.66868C2.77559 7.54511 2.88589 7.44625 2.99619 7.3474C3.02376 7.32268 3.05133 7.29797 3.07891 7.29797C3.10648 7.24854 3.10648 7.1744 3.16163 7.12497C3.1892 7.10026 3.21678 7.07554 3.24435 7.07554C3.27193 7.05083 3.27193 7.02611 3.27193 7.0014C3.2995 6.97669 3.32708 6.97669 3.35465 6.95197C3.38222 6.92726 3.38222 6.90254 3.38222 6.87783C3.4098 6.85312 3.43737 6.8284 3.46495 6.8284C3.49252 6.80369 3.49252 6.77897 3.49252 6.75426C3.52009 6.72954 3.54767 6.70483 3.57524 6.70483C3.60282 6.68012 3.60282 6.6554 3.60282 6.63069C3.63039 6.60597 3.65796 6.58126 3.68554 6.58126C3.71311 6.53183 3.71311 6.4824 3.76826 6.40826C3.79583 6.38355 3.82341 6.38355 3.85098 6.35883C3.87856 6.33412 3.85098 6.30941 3.87856 6.28469C3.90613 6.28469 3.9337 6.25998 3.96128 6.25998C3.98885 6.23526 3.96128 6.21055 3.98885 6.18583C3.98885 6.18583 4.044 6.16112 4.07157 6.16112C4.20944 6.03755 4.26459 5.91398 4.20944 5.71627V5.66684H4.18187V5.61741C4.1543 5.5927 4.07157 5.54327 4.07157 5.49384V5.46913C4.044 5.44441 3.98885 5.4197 3.96128 5.39498C3.9337 5.37027 3.9337 5.34556 3.9337 5.32084C3.9337 5.29613 3.90613 5.32084 3.90613 5.29613C3.90613 5.2467 3.85098 5.2467 3.82341 5.17256C3.82341 5.14784 3.76826 5.09841 3.74069 5.09841C3.71311 5.0737 3.68554 4.97484 3.63039 4.92542C3.57524 4.85127 3.52009 4.77713 3.46495 4.70299C3.43737 4.67828 3.46495 4.62885 3.43737 4.62885C3.43737 4.62885 3.38222 4.60413 3.35465 4.60413V4.5547H3.32708V4.50528C3.2995 4.48056 3.21678 4.43113 3.21678 4.38171C3.21678 4.33228 3.16163 4.33228 3.13406 4.25814C3.13406 4.23342 3.07891 4.18399 3.05133 4.18399C3.02376 4.15928 3.02376 4.10985 2.96861 4.06042C2.96861 4.03571 2.94104 4.06042 2.94104 4.03571C2.94104 4.01099 2.88589 3.96157 2.85832 3.96157C2.83074 3.93685 2.80317 3.86271 2.74802 3.78857C2.74802 3.76385 2.69287 3.73914 2.6653 3.73914V3.68971H2.63772V3.64028H2.61015V3.59085C2.58257 3.56614 2.49985 3.51671 2.49985 3.46728C2.49985 3.44257 2.4447 3.44257 2.41713 3.41786C2.41713 3.41786 2.4447 3.36843 2.41713 3.36843C2.38956 3.34371 2.30683 3.29429 2.30683 3.24486C2.30683 3.19543 2.22411 3.19543 2.22411 3.12129C2.22411 3.09657 2.16896 3.04714 2.14139 3.04714C2.11382 3.02243 2.11382 2.99772 2.11382 2.99772C2.08624 2.973 2.03109 2.94829 2.00352 2.92357C1.97595 2.89886 1.97595 2.87415 1.97595 2.84943C1.97595 2.82472 1.94837 2.84943 1.94837 2.82472C1.94837 2.8 1.86565 2.75058 1.83808 2.70115C1.8105 2.67643 1.78293 2.65172 1.75535 2.65172C1.75535 2.65172 1.78293 2.60229 1.75535 2.60229C1.72778 2.57758 1.64506 2.57758 1.64506 2.52815C1.64506 2.47872 1.53476 2.47872 1.53476 2.40458C1.53476 2.37986 1.47961 2.37986 1.45204 2.35515C1.45204 2.35515 1.47961 2.30572 1.45204 2.30572C1.39689 2.28101 1.31417 2.08329 1.28659 2.00915C1.23145 1.88558 1.1763 1.76201 1.1763 1.68787C1.1763 1.5643 1.23145 1.51487 1.31417 1.3913C1.36932 1.31716 1.36932 1.16887 1.39689 1.09473C1.42446 1.07002 1.47961 1.0453 1.50719 1.02059C1.53476 0.995875 1.61748 0.995875 1.61748 0.946447C1.67263 0.897019 1.70021 0.822877 1.8105 0.798163C1.89322 0.748734 2.00352 0.822877 2.14139 0.798163C2.33441 0.822877 2.36198 0.625164 2.52743 0.699306C2.61015 0.699306 2.69287 0.773448 2.77559 0.798163C3.05133 0.847591 3.05133 1.02059 3.24435 1.24302C3.24435 1.26773 3.27193 1.24302 3.27193 1.26773C3.27193 1.29244 3.32708 1.29244 3.35465 1.31716C3.35465 1.34187 3.35465 1.36659 3.35465 1.36659C3.38222 1.3913 3.43737 1.3913 3.46495 1.41601C3.46495 1.41601 3.43737 1.46544 3.46495 1.46544C3.46495 1.46544 3.52009 1.49016 3.54767 1.49016C3.54767 1.49016 3.52009 1.53959 3.54767 1.53959H3.57524V1.58901H3.60282C3.63039 1.63844 3.60282 1.66316 3.63039 1.68787C3.65796 1.71258 3.71311 1.71258 3.74069 1.7373C3.76826 1.76201 3.74069 1.81144 3.76826 1.83615C3.76826 1.83615 3.82341 1.86087 3.85098 1.86087C3.85098 1.88558 3.85098 1.9103 3.85098 1.9103C3.85098 1.9103 3.90613 1.93501 3.9337 1.93501C3.9337 1.95972 3.9337 1.98444 3.9337 1.98444C3.96128 2.00915 4.01643 2.00915 4.044 2.03387C4.044 2.03387 4.01643 2.0833 4.044 2.0833C4.09915 2.10801 4.09915 2.10801 4.12672 2.15744L4.1543 2.23158C4.20945 2.28101 4.23702 2.35515 4.29217 2.45401C4.29217 2.47872 4.31974 2.45401 4.31974 2.47872C4.31974 2.50343 4.37489 2.50344 4.40246 2.52815C4.40246 2.52815 4.37489 2.57758 4.40246 2.57758C4.43004 2.60229 4.51276 2.65172 4.51276 2.70115V2.72586C4.54033 2.75058 4.59548 2.77529 4.62306 2.8C4.65063 2.82472 4.67821 2.84943 4.70578 2.84943C4.70578 2.84943 4.67821 2.89886 4.70578 2.89886H4.73335V2.94829H4.76093V2.99772H4.7885C4.81607 3.02243 4.7885 3.04715 4.81607 3.07186C4.81607 3.09657 4.87122 3.09657 4.8988 3.09657C4.92637 3.12129 4.95395 3.17072 4.98152 3.22014C5.03667 3.29429 5.03667 3.34371 5.09182 3.41786C5.09182 3.44257 5.11939 3.41786 5.11939 3.44257C5.11939 3.46728 5.17454 3.51671 5.20211 3.51671C5.22969 3.54143 5.22969 3.59086 5.28483 3.64028C5.28483 3.665 5.31241 3.64028 5.31241 3.665C5.31241 3.68971 5.36756 3.73914 5.39513 3.73914L5.4227 3.78857C5.4227 3.78857 5.47785 3.78857 5.50543 3.78857C5.533 3.81328 5.67087 3.838 5.72602 3.78857C5.75359 3.76385 5.75359 3.78857 5.75359 3.76385C5.75359 3.71443 5.83632 3.71443 5.83632 3.665C5.83632 3.61557 5.94661 3.51671 6.00176 3.41786C6.11206 3.24486 6.24993 3.09657 6.30507 2.99772C6.3878 2.87415 6.44294 2.77529 6.55324 2.65172C6.55324 2.62701 6.58082 2.65172 6.58082 2.627C6.58082 2.57758 6.66354 2.57758 6.66354 2.52815C6.66354 2.47872 6.74626 2.45401 6.77383 2.42929V2.37986H6.80141V2.33044C6.85656 2.28101 6.88413 2.25629 6.96685 2.18215C7.022 2.10801 7.10472 2.03387 7.15987 1.95973C7.18744 1.93501 7.24259 1.9103 7.24259 1.88558L7.27017 1.81144C7.27017 1.81144 7.32532 1.78673 7.35289 1.78673V1.7373H7.38046V1.68787H7.40804V1.63844H7.43561V1.58901H7.46319V1.53959C7.6562 1.44073 7.73893 1.11945 7.93194 0.946447C7.95952 0.921733 8.01467 0.897019 8.04224 0.872305C8.12496 0.798162 8.20769 0.72402 8.34556 0.699306C8.34556 0.699306 8.4007 0.699306 8.42828 0.699306C8.48343 0.649878 8.64887 0.674592 8.92461 0.72402C9.09005 0.748734 9.2555 0.748734 9.33822 0.798163C9.3658 0.822877 9.44852 0.897019 9.47609 0.946447C9.72426 0.872304 9.75183 0.921733 9.72426 0.995875Z" fill="#1F1F1F"/>
</svg>
