<svg xmlns="http://www.w3.org/2000/svg" width="308" height="104" fill="none" viewBox="0 0 308 104"><path fill="#FF9D0B" stroke="#000" d="M5.52051 54.3331L12.4572 7.26294L75.2174 18.824L154.659 33.0277C193.615 39.929 223.865 44.5183 262.822 51.4197L250.106 96.5079L219.401 93.4754L101.312 73.1609L5.52051 54.3331Z"/><path fill="#1E1E1E" d="M261.634 87.6954C261.941 85.2379 262.317 82.8141 262.573 80.3808C262.691 79.1492 262.734 77.9397 262.778 76.7303C265.229 64.6858 268.573 47.0672 263.83 50.8319C263.987 50.7035 264.147 50.5471 264.362 50.3105C262.755 50.2376 261.183 50.0547 259.617 49.8158C254.837 48.6696 249.999 47.8853 245.13 47.1831C244.702 47.1205 244.251 47.0559 243.799 46.9914C243.704 46.9837 243.611 46.948 243.515 46.9403C241.781 46.6879 240.05 46.4076 238.316 46.1552C218.71 42.1515 123.252 26.4581 103.582 22.8723C86.5575 18.5686 67.8087 15.1698 50.3393 12.7483C48.5973 12.5799 46.8215 11.5062 45.0633 11.7596C43.8632 11.4655 42.6365 11.1976 41.4337 10.9315C37.775 9.90369 33.9567 9.28611 30.1967 8.81425C24.17 6.60859 17.4781 6.32388 11.5813 4.52356C11.3498 5.1819 11.1422 5.84216 10.9824 6.50626C10.6797 7.59065 10.6967 7.87285 10.5111 9.43464C10.2654 11.5022 10.1126 13.6054 9.77928 15.5813C8.78008 20.4935 7.54973 25.5563 7.06294 30.6508C5.62829 39.3641 4.67696 48.0599 3.01134 56.67C5.18347 56.873 7.48295 57.2555 9.66025 57.6564C10.2629 57.9024 10.8682 58.1203 11.4736 58.3383C9.73696 58.1139 7.69235 57.8365 6.0346 58.8032C5.67862 59.0002 5.90656 59.6391 6.27842 59.528C8.11916 58.9145 10.3758 59.7449 12.1415 60.1691C14.1674 60.6424 16.164 61.1698 18.206 61.4752C24.6637 62.4462 31.0601 63.8072 37.4112 65.3902C50.4187 68.6372 63.9918 68.3031 77.1939 70.5221C86.5803 72.0955 95.6708 75.2187 105.092 76.4283C118.748 79.4454 132.645 81.946 145.933 82.7616C148.068 83.1027 150.182 83.4138 152.325 83.6709C153.323 83.8077 229.397 96.6999 229.755 96.7288C230.546 97.0181 245.153 100.168 252.524 100.649C252.572 100.652 252.641 100.686 252.713 100.692C253.467 100.865 254.221 101.039 255.017 101.018C255.259 101.01 255.453 100.997 255.695 100.988C255.817 100.97 255.838 101 255.812 101.026C255.862 101.002 255.912 100.978 256.013 100.929C256.04 100.903 257.692 100.754 258.069 100.587C259.052 100.13 259.345 99.3358 258.833 98.6459C258.129 97.6867 249.099 96.1701 247.339 95.6899C242.806 94.4789 238.111 94.2139 233.441 93.697C226.791 92.9644 144.982 79.3567 138.397 78.2061C131.884 77.0614 125.378 75.8326 118.817 74.9379C118.461 74.881 118.079 74.8503 117.723 74.7934C109.086 73.1956 100.546 71.3237 92.2683 68.4855C81.4782 65.2195 70.598 65.6696 59.8603 63.3668C44.6737 58.4777 28.6756 59.5253 13.4649 54.8881C8.29898 52.244 6.92663 55.2645 7.75527 47.3486C7.77382 47.4065 7.8136 47.4944 7.82947 47.5803C8.31954 45.476 8.52281 43.3486 8.58269 41.2097C9.03204 36.5071 11.2732 25.1508 12.0225 20.5852C11.9731 19.0862 13.2035 17.8031 12.6149 16.4018C13.2478 15.0706 13.7346 9.97614 13.9616 8.10455C15.5122 8.51141 17.2302 8.67789 17.7056 8.74435C18.5128 8.86573 19.32 8.98711 20.1272 9.10849C27.463 11.4759 35.1579 12.8568 42.8611 13.8999C42.832 13.7001 42.8932 13.564 42.9994 13.4597C43.0472 13.4636 43.1163 13.4973 43.1641 13.5012C43.1056 13.6093 43.0178 13.7715 42.8584 13.9279C45.0171 14.2709 47.213 14.7297 49.401 15.0186C55.6087 16.5901 61.8084 18.2455 68.0134 19.845C74.2901 21.4502 80.5828 22.8875 86.9635 23.9087C93.4371 24.9657 99.956 25.8006 106.427 26.8855C112.874 27.9685 119.214 29.6635 125.693 30.6645C132.053 31.6558 138.468 32.3132 144.862 33.1945C151.994 34.1634 234.276 48.3733 241.379 49.3962C248.53 50.4231 255.678 51.4779 262.64 53.4767C262.565 53.7528 262.514 54.0308 262.466 54.2808C262.128 55.8049 261.957 57.3425 261.786 58.8802C261.31 63.1011 260.694 67.2826 260.431 71.5488C260.267 74.0179 260.321 76.4762 260.11 78.9414C259.917 81.4645 259.461 83.9665 259.098 86.5041C258.968 87.368 258.882 88.2637 258.799 89.1315C258.644 89.9934 258.514 90.8573 258.359 91.7193C257.859 92.4125 257.494 95.2661 257.309 98.2129C257.019 98.7255 257.008 99.3452 257.249 99.8442C257.28 100.524 257.376 100.785 257.589 100.323C257.61 100.353 257.655 100.385 257.676 100.414C257.764 100.506 257.878 100.572 257.965 100.663C258.772 101.292 259.662 100.546 259.987 99.6696C261.645 95.1771 261.075 92.2764 261.634 87.6954Z"/><path fill="#FFF8F0" d="M238.593 70.0592C238.819 69.8125 239.062 69.6316 239.321 69.5166C239.592 69.4034 239.85 69.3337 240.094 69.3074C240.341 69.27 240.565 69.263 240.766 69.2864C240.968 69.3099 241.13 69.3321 241.252 69.3532C241.807 69.4491 242.259 69.6757 242.608 70.0332C242.971 70.3815 243.24 70.8051 243.417 71.304C243.606 71.7938 243.714 72.3266 243.741 72.9024C243.778 73.4801 243.75 74.0352 243.658 74.5677C243.572 75.067 243.411 75.5704 243.175 76.078C242.949 76.5875 242.649 77.0382 242.273 77.4302C241.909 77.813 241.471 78.1029 240.957 78.2997C240.443 78.4965 239.859 78.5384 239.204 78.4253C239.016 78.3927 238.813 78.3406 238.597 78.2689C238.383 78.1862 238.178 78.0823 237.983 77.9571C237.787 77.8319 237.608 77.6809 237.444 77.5041C237.291 77.3292 237.173 77.1203 237.09 76.8773L236.694 77.9744L234.551 77.5868C234.996 75.5386 235.394 73.4994 235.745 71.4692C236.096 69.439 236.422 67.3874 236.723 65.3143L239.44 65.8525L238.593 70.0592ZM241.091 73.9527C241.153 73.5977 241.188 73.261 241.197 72.9427C241.218 72.6263 241.197 72.3486 241.135 72.1094C241.087 71.8611 240.99 71.6616 240.845 71.5108C240.712 71.3508 240.524 71.2497 240.28 71.2076C239.759 71.1175 239.33 71.2491 238.995 71.6025C238.66 71.9558 238.416 72.5763 238.262 73.4638C238.149 74.1184 238.21 74.6601 238.444 75.0891C238.691 75.5089 239.037 75.7571 239.481 75.8338C239.725 75.876 239.935 75.8494 240.111 75.7543C240.299 75.661 240.453 75.5277 240.575 75.3544C240.709 75.172 240.814 74.9616 240.889 74.7233C240.978 74.4758 241.045 74.2189 241.091 73.9527Z"/><path fill="#FFF8F0" d="M226.124 66.2248C226.357 66.1966 226.587 66.185 226.815 66.1901C227.054 66.1971 227.262 66.2159 227.439 66.2466C227.761 66.3022 228.08 66.4087 228.395 66.566C228.724 66.7142 229.012 66.9297 229.261 67.2125C229.595 67.0646 229.926 66.962 230.256 66.9048C230.597 66.8494 230.94 66.8515 231.284 66.9109C231.727 66.9876 232.138 67.1214 232.517 67.3125C232.897 67.4925 233.208 67.7405 233.451 68.0566C233.706 68.3635 233.875 68.7412 233.957 69.1896C234.053 69.6288 234.043 70.147 233.929 70.7442C233.715 71.8498 233.479 72.9515 233.22 74.0494C232.962 75.1473 232.659 76.2375 232.312 77.3201L230.085 76.9181C230.308 75.8255 230.494 74.7494 230.643 73.6897C230.792 72.6301 230.93 71.5685 231.057 70.5049C231.096 70.1461 231.044 69.8857 230.9 69.7238C230.768 69.5639 230.585 69.4638 230.352 69.4235C230.197 69.3967 230.033 69.3855 229.861 69.39C229.659 70.6234 229.399 71.8638 229.081 73.1112C228.776 74.3495 228.471 75.5138 228.169 76.604L225.842 76.1848C226.05 75.1125 226.24 74.0484 226.411 72.9926C226.593 71.9386 226.749 70.8688 226.88 69.7831C226.917 69.4354 226.864 69.1805 226.72 69.0187C226.579 68.8457 226.397 68.74 226.175 68.7017C226.009 68.6729 225.821 68.669 225.612 68.69C225.41 69.9233 225.165 71.1435 224.876 72.3504C224.59 73.5462 224.282 74.7327 223.953 75.9097L221.643 75.4934C222.006 73.7853 222.323 72.0862 222.592 70.3961C222.874 68.6968 223.131 66.9816 223.361 65.2505L226.212 65.8117L226.124 66.2248Z"/><path fill="#FFF8F0" d="M216.968 74.1714C216.603 74.234 216.228 74.2549 215.843 74.2341C215.469 74.2152 215.121 74.1779 214.8 74.1223C214.467 74.0648 214.138 73.9509 213.813 73.7805C213.491 73.599 213.213 73.3567 212.979 73.0537C212.748 72.7395 212.579 72.3618 212.472 71.9206C212.368 71.4684 212.373 70.9437 212.487 70.3465C212.701 69.241 212.936 68.1448 213.193 67.058C213.46 65.9731 213.801 64.8951 214.214 63.824L216.491 64.2347C216.258 65.2568 216.05 66.2949 215.867 67.3488C215.685 68.4027 215.516 69.4817 215.359 70.5858C215.309 70.9427 215.355 71.2077 215.496 71.3807C215.64 71.5425 215.822 71.6427 216.044 71.681C216.111 71.6925 216.206 71.7033 216.33 71.7132C216.465 71.7252 216.6 71.7371 216.735 71.749C216.883 71.7517 217.026 71.7535 217.163 71.7543C217.302 71.744 217.406 71.7336 217.477 71.7229C217.576 71.146 217.694 70.5322 217.829 69.8815C217.976 69.2327 218.126 68.5959 218.279 67.9712C218.446 67.3374 218.607 66.7368 218.762 66.1695C218.919 65.5911 219.064 65.0848 219.196 64.6506L221.423 65.0526C221.039 66.7458 220.711 68.4429 220.44 70.1442C220.182 71.8362 219.939 73.5422 219.71 75.2622L216.859 74.701L216.968 74.1714Z"/><path fill="#FFF8F0" d="M207.338 60.185C207.268 60.7213 207.194 61.2512 207.115 61.7745C207.037 62.2868 206.956 62.7925 206.869 63.2917C207.112 63.2765 207.391 63.2847 207.705 63.3162C208.033 63.3385 208.307 63.3688 208.529 63.4071C208.995 63.4877 209.418 63.6179 209.798 63.7979C210.192 63.9686 210.51 64.2065 210.755 64.5116C211.01 64.8185 211.179 65.1962 211.262 65.6446C211.346 66.0819 211.317 66.6138 211.174 67.2405C210.939 68.2737 210.668 69.3123 210.362 70.3562C210.056 71.4002 209.733 72.407 209.394 73.3767L207.094 72.6022C207.335 71.6727 207.547 70.7439 207.73 69.8158C207.926 68.8785 208.117 67.9403 208.302 67.0012C208.337 66.8015 208.332 66.6293 208.289 66.4847C208.256 66.342 208.191 66.2222 208.094 66.1254C207.996 66.0286 207.877 65.9566 207.737 65.9095C207.609 65.8532 207.474 65.8126 207.329 65.7877C207.252 65.7742 207.107 65.7549 206.894 65.7295C206.692 65.7061 206.523 65.694 206.386 65.6932C205.839 68.0665 205.119 70.3129 204.227 72.4324L202.334 71.8825C202.603 70.855 202.841 69.8449 203.047 68.8522C203.252 67.8595 203.424 66.8665 203.561 65.8734C203.701 64.8692 203.807 63.8592 203.879 62.8435C203.963 61.8297 204.022 60.7945 204.056 59.7378L207.338 60.185Z"/><path fill="#FFF8F0" d="M194.706 57.9849C195.341 58.1405 195.94 58.2782 196.502 58.3982C197.066 58.5071 197.649 58.6077 198.25 58.7002C198.851 58.7926 199.493 58.8751 200.178 58.9477C200.873 59.0222 201.671 59.0973 202.572 59.173L202.384 61.454C201.912 61.4753 201.465 61.4837 201.043 61.4793C200.632 61.4769 200.227 61.4698 199.83 61.4582C199.539 63.2704 199.165 64.971 198.708 66.56C198.252 68.138 197.711 69.684 197.084 71.198L195.191 70.6481C195.619 69.0311 195.961 67.4506 196.216 65.9066C196.473 64.3515 196.661 62.7673 196.78 61.154C195.991 61.029 195.134 60.8638 194.209 60.6584L194.706 57.9849Z"/><path fill="#FFF8F0" d="M191.539 66.4522C191.073 66.4402 190.646 66.4293 190.259 66.4196C189.885 66.4007 189.501 66.3743 189.107 66.3405C188.715 66.2956 188.285 66.2384 187.817 66.169C187.35 66.0996 186.799 66.0102 186.167 65.9009C186.215 66.2177 186.308 66.5079 186.445 66.7716C186.593 67.0372 186.815 67.2754 187.11 67.4863C187.418 67.6881 187.811 67.8588 188.29 67.9987C188.781 68.1293 189.399 68.2246 190.143 68.2846L190.146 69.5534C189.926 69.5725 189.678 69.5867 189.402 69.5962C189.137 69.6075 188.873 69.6134 188.61 69.6136C188.349 69.6028 188.095 69.5874 187.847 69.5674C187.61 69.5494 187.414 69.5269 187.259 69.5001C186.582 69.3831 185.946 69.1989 185.349 68.9473C184.766 68.6865 184.274 68.3273 183.873 67.8696C183.474 67.4007 183.193 66.8151 183.029 66.1126C182.864 65.4101 182.874 64.5606 183.058 63.5641C183.211 62.745 183.468 62.0469 183.831 61.4698C184.193 60.8926 184.61 60.4333 185.08 60.0918C185.562 59.7523 186.064 59.5248 186.586 59.4095C187.122 59.285 187.634 59.2649 188.122 59.3493C188.843 59.4739 189.474 59.6914 190.014 60.0019C190.566 60.3143 190.998 60.7546 191.311 61.3229C191.626 61.88 191.808 62.5798 191.857 63.4223C191.917 64.2667 191.811 65.2766 191.539 66.4522ZM188.109 61.1122C187.641 61.0428 187.26 61.1941 186.968 61.5662C186.677 61.9273 186.439 62.5774 186.254 63.5165C186.429 63.5583 186.761 63.6214 187.249 63.7057C187.739 63.779 188.358 63.8688 189.105 63.975C189.172 63.5867 189.195 63.225 189.172 62.8899C189.162 62.5566 189.11 62.262 189.017 62.006C188.935 61.752 188.816 61.5486 188.659 61.3959C188.503 61.2432 188.319 61.1486 188.109 61.1122Z"/><path fill="#FFF8F0" d="M179.046 58.5004C179.293 58.3261 179.56 58.2351 179.847 58.2276C180.147 58.2109 180.391 58.2188 180.58 58.2514C180.935 58.3127 181.311 58.4464 181.71 58.6524C182.111 58.8473 182.486 59.1234 182.835 59.4809L181.497 61.769C181.393 61.5796 181.27 61.3984 181.128 61.2254C180.989 61.0413 180.84 60.8785 180.681 60.7368C180.523 60.5952 180.361 60.4758 180.195 60.3786C180.029 60.2813 179.879 60.2212 179.746 60.1982C179.613 60.1752 179.478 60.1633 179.341 60.1625C179.215 60.1636 179.09 60.1934 178.966 60.2518C178.854 60.3011 178.754 60.3866 178.664 60.5082C178.577 60.6188 178.515 60.7794 178.478 60.9902C178.442 61.201 178.382 61.482 178.298 61.8332C178.226 62.1863 178.136 62.5763 178.028 63.0032C177.933 63.4209 177.823 63.8589 177.698 64.3172C177.586 64.7663 177.47 65.2034 177.351 65.6284C177.243 66.0553 177.136 66.4424 177.03 66.7897C176.925 67.1371 176.836 67.4188 176.764 67.6349L174.571 67.2387C175.281 63.9224 175.841 60.5802 176.252 57.2122L179.203 57.7906L179.046 58.5004Z"/><path fill="#FFF8F0" d="M172.467 66.8922L170.253 66.5097L170.226 65.5795C170 65.8261 169.679 65.9991 169.262 66.0985C168.856 66.1997 168.47 66.2187 168.104 66.1554C167.482 66.048 166.968 65.8506 166.561 65.5631C166.155 65.2646 165.838 64.9184 165.609 64.5246C165.382 64.1198 165.234 63.6886 165.164 63.231C165.108 62.7642 165.117 62.3145 165.192 61.8818C165.267 61.4491 165.412 61.04 165.627 60.6545C165.844 60.2578 166.124 59.9236 166.468 59.6517C166.825 59.3706 167.248 59.1751 167.735 59.0651C168.225 58.944 168.785 58.9381 169.418 59.0474C169.773 59.1087 170.098 59.2106 170.393 59.3531C170.702 59.4863 170.982 59.6833 171.234 59.9439C171.291 59.4167 171.142 59.0198 170.788 58.753C170.436 58.4751 169.989 58.2892 169.445 58.1952C169.079 58.1319 168.69 58.0991 168.28 58.0966C167.88 58.0961 167.486 58.1252 167.099 58.184L167.002 56.7619C167.533 56.4652 168.133 56.2661 168.802 56.1646C169.482 56.065 170.155 56.0728 170.82 56.1878C171.286 56.2683 171.718 56.4171 172.114 56.6342C172.511 56.8513 172.838 57.142 173.095 57.5063C173.353 57.8595 173.529 58.2955 173.623 58.8143C173.729 59.324 173.724 59.9116 173.609 60.5772L172.467 66.8922ZM167.745 62.0831C167.716 62.2495 167.703 62.4243 167.706 62.6076C167.719 62.7928 167.764 62.9661 167.839 63.1276C167.915 63.2779 168.023 63.4165 168.161 63.5432C168.312 63.6607 168.515 63.7415 168.77 63.7856C169.037 63.8316 169.265 63.8311 169.456 63.7841C169.66 63.728 169.829 63.6429 169.963 63.5289C170.108 63.4169 170.218 63.276 170.293 63.1061C170.379 62.9382 170.44 62.7544 170.474 62.5547C170.574 61.9778 170.518 61.5398 170.307 61.2405C170.098 60.9301 169.766 60.7357 169.311 60.6571C169.056 60.613 168.836 60.6265 168.653 60.6975C168.469 60.7686 168.314 60.8732 168.187 61.0113C168.072 61.1513 167.974 61.3173 167.896 61.5093C167.83 61.6921 167.779 61.8834 167.745 62.0831Z"/><path fill="#FFF8F0" d="M160.226 52.0434C160.157 52.5797 160.082 53.1096 160.003 53.6329C159.926 54.1452 159.844 54.6509 159.758 55.1501C160.001 55.1349 160.279 55.1431 160.594 55.1746C160.921 55.1969 161.196 55.2272 161.418 55.2655C161.884 55.3461 162.307 55.4763 162.687 55.6563C163.08 55.827 163.399 56.0649 163.643 56.37C163.899 56.6769 164.068 57.0546 164.15 57.503C164.235 57.9403 164.205 58.4722 164.063 59.0989C163.827 60.1321 163.556 61.1707 163.25 62.2146C162.944 63.2586 162.622 64.2654 162.283 65.2351L159.983 64.4606C160.224 63.5311 160.435 62.6023 160.619 61.6742C160.815 60.7369 161.006 59.7987 161.191 58.8596C161.225 58.6599 161.221 58.4877 161.177 58.3431C161.145 58.2004 161.08 58.0806 160.982 57.9838C160.885 57.887 160.766 57.815 160.625 57.7679C160.498 57.7116 160.362 57.671 160.218 57.6461C160.14 57.6326 159.995 57.6133 159.782 57.5879C159.581 57.5645 159.412 57.5524 159.275 57.5516C158.727 59.9249 158.008 62.1713 157.116 64.2908L155.223 63.7409C155.492 62.7134 155.729 61.7033 155.935 60.7106C156.141 59.7179 156.313 58.7249 156.45 57.7318C156.589 56.7276 156.695 55.7176 156.768 54.7019C156.852 53.6881 156.911 52.6529 156.945 51.5962L160.226 52.0434Z"/><path fill="#FFF8F0" d="M147.08 58.3749C147.128 58.6233 147.192 58.88 147.272 59.1451C147.363 59.4122 147.481 59.6554 147.626 59.8747C147.771 60.0939 147.955 60.2857 148.178 60.4499C148.412 60.616 148.696 60.7278 149.028 60.7854C149.161 60.8084 149.319 60.8241 149.5 60.8326C149.694 60.8319 149.881 60.8071 150.061 60.7582C150.243 60.6982 150.402 60.6057 150.538 60.4806C150.685 60.3575 150.778 60.1795 150.819 59.9465C150.87 59.6469 150.816 59.3634 150.657 59.096C150.509 58.8304 150.317 58.5858 150.081 58.3623C149.847 58.1277 149.603 57.9254 149.346 57.7555C149.092 57.5744 148.889 57.4251 148.738 57.3076C148.244 56.9252 147.839 56.5582 147.523 56.2065C147.207 55.8548 146.958 55.509 146.777 55.1692C146.607 54.8313 146.501 54.4873 146.458 54.1373C146.416 53.7872 146.427 53.4235 146.493 53.0463C146.573 52.5804 146.736 52.1686 146.98 51.811C147.238 51.4442 147.558 51.1453 147.941 50.9144C148.334 50.6854 148.789 50.5354 149.304 50.4645C149.832 50.3843 150.412 50.3989 151.044 50.5082C151.189 50.5331 151.397 50.5806 151.671 50.6507C151.944 50.7209 152.234 50.8281 152.541 50.9724C152.86 51.1076 153.176 51.2937 153.49 51.5306C153.805 51.7564 154.075 52.0431 154.301 52.3906C154.528 52.7269 154.692 53.1324 154.793 53.6068C154.894 54.0812 154.891 54.6291 154.783 55.2503L152.82 54.911C152.836 54.6853 152.819 54.4538 152.768 54.2166C152.718 53.9794 152.625 53.7576 152.489 53.5514C152.354 53.3451 152.168 53.1645 151.932 53.0094C151.707 52.8563 151.428 52.751 151.095 52.6935C150.662 52.6187 150.314 52.6842 150.05 52.8899C149.799 53.0865 149.647 53.403 149.595 53.8395C149.567 54.0633 149.567 54.2632 149.594 54.4392C149.632 54.6171 149.714 54.8027 149.84 54.9959C149.98 55.18 150.173 55.3848 150.42 55.6102C150.666 55.8356 150.996 56.1097 151.409 56.4324C151.971 56.8836 152.408 57.2962 152.72 57.6701C153.034 58.0329 153.26 58.3804 153.397 58.7125C153.545 59.0466 153.621 59.3682 153.624 59.6773C153.628 59.9864 153.601 60.3074 153.544 60.6402C153.475 61.0396 153.309 61.4051 153.046 61.7367C152.796 62.0591 152.475 62.3293 152.083 62.5472C151.693 62.754 151.251 62.9004 150.756 62.9862C150.263 63.061 149.745 63.0515 149.201 62.9575C147.914 62.7351 146.937 62.2406 146.27 61.4741C145.605 60.6964 145.289 59.6136 145.323 58.2256L147.08 58.3749Z"/><path fill="#FFF8F0" d="M135.59 47.7858C135.52 48.3222 135.446 48.852 135.366 49.3753C135.289 49.8876 135.208 50.3933 135.121 50.8926C135.364 50.8773 135.643 50.8855 135.957 50.917C136.284 50.9393 136.559 50.9696 136.781 51.008C137.247 51.0885 137.67 51.2187 138.05 51.3987C138.443 51.5695 138.762 51.8074 139.007 52.1124C139.262 52.4193 139.431 52.797 139.513 53.2454C139.598 53.6827 139.569 54.2147 139.426 54.8413C139.191 55.8745 138.92 56.9131 138.614 57.9571C138.307 59.001 137.985 60.0078 137.646 60.9775L135.346 60.2031C135.587 59.2735 135.799 58.3447 135.982 57.4166C136.178 56.4794 136.369 55.5412 136.554 54.602C136.589 54.4023 136.584 54.2302 136.541 54.0855C136.508 53.9428 136.443 53.823 136.346 53.7262C136.248 53.6294 136.129 53.5574 135.989 53.5103C135.861 53.454 135.726 53.4134 135.581 53.3885C135.504 53.3751 135.358 53.3557 135.146 53.3304C134.944 53.3069 134.775 53.2948 134.638 53.294C134.091 55.6673 133.371 57.9137 132.479 60.0332L130.586 59.4833C130.855 58.4558 131.093 57.4457 131.298 56.453C131.504 55.4603 131.676 54.4674 131.813 53.4743C131.953 52.47 132.058 51.4601 132.131 50.4444C132.215 49.4306 132.274 48.3953 132.308 47.3387L135.59 47.7858Z"/><path fill="#FFF8F0" d="M125.673 48.6088C125.708 48.4091 125.745 48.1928 125.786 47.9598C125.837 47.7287 125.887 47.5032 125.937 47.2832C125.988 47.0522 126.036 46.8433 126.079 46.6566C126.125 46.4589 126.164 46.2999 126.196 46.1798L129.033 46.7215L128.552 49.1063L130.502 49.4261L130.127 51.8976L128.107 51.5829C128.084 51.7161 128.051 51.9102 128.007 52.1654C127.964 52.4094 127.916 52.6868 127.863 52.9974C127.82 53.31 127.769 53.6382 127.71 53.9821C127.65 54.326 127.594 54.6533 127.54 54.9639C127.498 55.2765 127.454 55.5603 127.41 55.8155C127.379 56.0615 127.357 56.252 127.346 56.3871C127.295 56.8125 127.323 57.1143 127.429 57.2927C127.535 57.471 127.699 57.5793 127.921 57.6177C128.143 57.656 128.362 57.6767 128.579 57.6799C128.807 57.6849 129.035 57.6845 129.265 57.6784L129.101 59.1239C128.125 59.2181 127.337 59.2133 126.738 59.1098C125.906 58.966 125.302 58.6274 124.925 58.0939C124.551 57.5494 124.41 56.7823 124.501 55.7926C124.519 55.5558 124.557 55.2367 124.615 54.8354C124.686 54.4249 124.755 53.9913 124.822 53.5345C124.89 53.0778 124.96 52.6386 125.033 52.217C125.108 51.7843 125.169 51.4293 125.217 51.152L123.783 50.9213L124.226 48.3586L125.673 48.6088Z"/><path fill="#FFF8F0" d="M118.509 57.5507C118.619 56.9183 118.718 56.3128 118.806 55.734C118.906 55.1571 118.992 54.5607 119.064 53.9447C119.149 53.3196 119.225 52.6473 119.293 51.9277C119.371 51.21 119.449 50.3951 119.527 49.4831L122.642 49.9015C122.505 50.8261 122.366 51.6647 122.224 52.4172C122.085 53.1586 121.942 53.8536 121.795 54.5024C121.651 55.1401 121.495 55.7472 121.326 56.3237C121.169 56.9021 121 57.4841 120.819 58.0698L118.509 57.5507ZM119.809 48.1438L120.302 45.1954L123.236 45.771L122.719 48.6637L119.809 48.1438Z"/><path fill="#FFF8F0" d="M118.567 47.3121C117.974 48.9577 117.351 50.5809 116.697 52.1818C116.043 53.7826 115.324 55.3664 114.539 56.9331L112.542 56.588C112.499 55.7808 112.468 54.9357 112.449 54.0527C112.432 53.1586 112.375 52.2346 112.277 51.2808C112.091 51.7628 111.91 52.2115 111.736 52.6269C111.561 53.0423 111.388 53.4466 111.218 53.8399C111.047 54.2331 110.866 54.6188 110.675 54.9971C110.497 55.3663 110.3 55.7436 110.085 56.1291L107.769 55.7461C107.585 54.0347 107.459 52.3163 107.392 50.5909C107.326 48.8543 107.29 47.1115 107.284 45.3623L110.047 45.8397C109.975 47.0498 109.919 48.2285 109.881 49.3758C109.854 50.525 109.86 51.6458 109.9 52.7381L111.932 47.1253L113.713 47.433C113.798 48.396 113.856 49.3486 113.887 50.2909C113.919 51.2332 113.933 52.1782 113.929 53.1259C114.355 52.1141 114.716 51.0853 115.011 50.0394C115.306 48.9936 115.592 47.9292 115.871 46.8462L118.567 47.3121Z"/><path fill="#FFF8F0" d="M100.435 50.7083C99.969 50.6963 99.5424 50.6854 99.1557 50.6757C98.7819 50.6568 98.398 50.6304 98.0039 50.5966C97.6118 50.5517 97.1818 50.4945 96.7139 50.4251C96.2461 50.3557 95.696 50.2663 95.0636 50.157C95.1117 50.4738 95.2044 50.764 95.3416 51.0277C95.4899 51.2933 95.7115 51.5315 96.0064 51.7424C96.3143 51.9442 96.7076 52.1149 97.1861 52.2548C97.6777 52.3854 98.2953 52.4807 99.039 52.5407L99.0425 53.8095C98.8222 53.8286 98.5741 53.8428 98.2982 53.8523C98.0335 53.8636 97.7697 53.8695 97.5069 53.8698C97.2459 53.8589 96.9915 53.8435 96.7436 53.8235C96.5068 53.8055 96.3108 53.783 96.1554 53.7562C95.4787 53.6392 94.8422 53.455 94.2458 53.2034C93.6625 52.9426 93.1704 52.5834 92.7697 52.1257C92.3708 51.6568 92.0893 51.0712 91.925 50.3687C91.7608 49.6662 91.7705 48.8167 91.9542 47.8202C92.1071 47.0011 92.3649 46.303 92.7274 45.7259C93.0899 45.1487 93.5063 44.6894 93.9767 44.3479C94.4581 44.0084 94.9601 43.7809 95.4827 43.6656C96.0184 43.5411 96.5303 43.521 97.0184 43.6054C97.7396 43.73 98.3703 43.9475 98.9108 44.258C99.4624 44.5704 99.8947 45.0107 100.208 45.579C100.523 46.1361 100.705 46.8359 100.753 47.6784C100.813 48.5228 100.707 49.5327 100.435 50.7083ZM97.0051 45.3683C96.5373 45.2989 96.1569 45.4502 95.8641 45.8223C95.5732 46.1834 95.3352 46.8335 95.15 47.7726C95.3256 47.8144 95.6575 47.8775 96.1456 47.9618C96.6357 48.0351 97.2543 48.1249 98.0014 48.2311C98.0685 47.8428 98.091 47.4811 98.069 47.146C98.058 46.8127 98.0061 46.5181 97.9132 46.2621C97.8315 46.0081 97.7124 45.8047 97.5559 45.652C97.3995 45.4993 97.2159 45.4047 97.0051 45.3683Z"/><path fill="#FFF8F0" d="M89.1791 52.4992C89.0481 53.0593 88.8195 53.5225 88.4934 53.8889C88.1784 54.2572 87.7927 54.539 87.3362 54.7343C86.8908 54.9316 86.3857 55.0442 85.821 55.0723C85.2655 55.1134 84.6882 55.0822 84.0891 54.9787C83.6676 54.9058 83.2305 54.7903 82.778 54.6321C82.3235 54.485 81.8572 54.3073 81.3791 54.099L81.6741 52.5904C81.868 52.6582 82.1193 52.7245 82.4281 52.7893C82.7349 52.8652 83.0621 52.9217 83.4099 52.959C83.7576 52.9962 84.1102 53.0057 84.4675 52.9875C84.834 52.9823 85.1694 52.926 85.4736 52.8186C85.7758 52.7223 86.0368 52.5675 86.2565 52.3541C86.4743 52.1518 86.6129 51.8787 86.6723 51.5347L86.8218 50.6694C86.6932 50.8186 86.5277 50.9499 86.3253 51.0635C86.1359 51.1678 85.9206 51.2563 85.6796 51.3289C85.4515 51.3923 85.2107 51.4307 84.957 51.444C84.7034 51.4573 84.4545 51.4428 84.2105 51.4007C83.6003 51.2952 83.0963 51.071 82.6986 50.7281C82.3027 50.374 81.9924 49.9548 81.7677 49.4704C81.5559 48.9768 81.4249 48.4457 81.3746 47.8772C81.3263 47.2975 81.35 46.7304 81.4459 46.1757C81.5436 45.6099 81.708 45.0556 81.9389 44.5128C82.1828 43.9608 82.4994 43.4843 82.8886 43.0831C83.2909 42.6727 83.7776 42.3684 84.3489 42.17C84.9202 41.9717 85.5885 41.9387 86.354 42.071C86.7423 42.1381 87.0766 42.253 87.357 42.4157C87.6504 42.5692 87.9038 42.7558 88.1172 42.9755L88.3493 42.2273L91.1696 42.7661C90.5409 46.0736 89.8774 49.318 89.1791 52.4992ZM84.3628 46.3541C84.3167 46.6204 84.2929 46.8905 84.2913 47.1644C84.2896 47.4383 84.3196 47.6948 84.3811 47.934C84.4556 48.1639 84.5691 48.3664 84.7217 48.5413C84.8762 48.7051 85.0866 48.81 85.3529 48.856C85.8521 48.9423 86.2711 48.8319 86.6098 48.5248C86.9485 48.2177 87.1868 47.6648 87.3249 46.866C87.39 46.4888 87.4217 46.1401 87.42 45.8199C87.4182 45.4997 87.3699 45.2171 87.2751 44.9722C87.1914 44.7293 87.0603 44.5295 86.8817 44.373C86.705 44.2053 86.4724 44.0966 86.184 44.0467C85.9177 44.0007 85.6824 44.04 85.4781 44.1647C85.2756 44.2782 85.0979 44.4474 84.9447 44.6723C84.8046 44.8881 84.6855 45.1474 84.5875 45.4504C84.4913 45.7422 84.4164 46.0435 84.3628 46.3541Z"/><path fill="#FFF8F0" d="M78.9744 50.7357L76.7611 50.3532L76.7334 49.423C76.5079 49.6697 76.1867 49.8426 75.7696 49.942C75.3637 50.0432 74.9777 50.0622 74.6116 49.9989C73.9903 49.8915 73.476 49.6941 73.0686 49.4066C72.6632 49.1081 72.346 48.7619 72.117 48.3681C71.8899 47.9633 71.7416 47.5321 71.6722 47.0745C71.6157 46.6077 71.6249 46.158 71.6997 45.7253C71.7745 45.2927 71.9194 44.8835 72.1346 44.498C72.3516 44.1013 72.6322 43.7671 72.9763 43.4952C73.3333 43.2141 73.7556 43.0186 74.243 42.9086C74.7324 42.7875 75.2932 42.7816 75.9256 42.8909C76.2806 42.9523 76.6058 43.0541 76.901 43.1966C77.2094 43.3298 77.4895 43.5268 77.7415 43.7874C77.7984 43.2602 77.6499 42.8633 77.2961 42.5965C76.9442 42.3186 76.4965 42.1327 75.9529 42.0387C75.5868 41.9755 75.1983 41.9426 74.7874 41.9401C74.3876 41.9396 73.9941 41.9687 73.6069 42.0275L73.5099 40.6054C74.0411 40.3087 74.641 40.1096 75.3098 40.0081C75.9897 39.9085 76.6624 39.9163 77.3281 40.0313C77.794 40.1118 78.2253 40.2606 78.622 40.4777C79.0186 40.6948 79.3454 40.9855 79.6024 41.3498C79.8613 41.703 80.0373 42.139 80.1304 42.6578C80.2366 43.1675 80.2321 43.7551 80.1171 44.4207L78.9744 50.7357ZM74.2527 45.9266C74.224 46.093 74.2109 46.2678 74.2135 46.4511C74.2272 46.6363 74.2715 46.8096 74.3465 46.9711C74.4233 47.1214 74.5307 47.26 74.6688 47.3867C74.8199 47.5042 75.023 47.585 75.2782 47.6291C75.5444 47.6751 75.773 47.6746 75.9639 47.6276C76.1679 47.5715 76.3368 47.4864 76.4708 47.3724C76.6158 47.2604 76.7258 47.1195 76.8009 46.9496C76.887 46.7817 76.9474 46.5979 76.9819 46.3982C77.0816 45.8213 77.0259 45.3833 76.8148 45.084C76.6057 44.7736 76.2737 44.5792 75.8188 44.5006C75.5636 44.4565 75.3442 44.47 75.1606 44.5411C74.9769 44.6121 74.8217 44.7167 74.695 44.8548C74.5794 44.9948 74.4822 45.1608 74.4033 45.3528C74.3374 45.5356 74.2872 45.7269 74.2527 45.9266Z"/><path fill="#FFF8F0" d="M63.7423 51.3253L61.0017 50.9202C61.2114 49.9053 61.4176 48.8441 61.6204 47.7366C61.8232 46.6291 62.0224 45.5096 62.218 44.378C62.4135 43.2464 62.596 42.124 62.7656 41.0108C62.9351 39.8975 63.0859 38.8267 63.2179 37.7984L65.3675 38.1528L65.3716 39.3189C65.532 39.1181 65.7134 38.9609 65.9158 38.8473C66.1293 38.7357 66.3491 38.6537 66.5753 38.6014C66.8014 38.5491 67.0283 38.5255 67.2559 38.5305C67.4855 38.5245 67.6945 38.5378 67.8831 38.5704C68.5377 38.6835 69.0684 38.918 69.4753 39.274C69.8823 39.6299 70.1926 40.0491 70.4062 40.5317C70.6199 41.0142 70.7473 41.5332 70.7884 42.0887C70.8406 42.6462 70.8392 43.1829 70.7843 43.699C70.6988 44.3926 70.5393 45.0505 70.3061 45.6729C70.0859 46.2861 69.794 46.8183 69.4304 47.2696C69.0797 47.7118 68.6678 48.0462 68.1944 48.2729C67.7211 48.4995 67.2071 48.565 66.6524 48.4691C66.5303 48.448 66.3704 48.4147 66.1727 48.3691C65.9749 48.3235 65.7653 48.2472 65.5438 48.1404C65.3242 48.0225 65.1049 47.8703 64.8857 47.6839C64.6796 47.4884 64.5127 47.231 64.385 46.9119L63.7423 51.3253ZM68.1596 43.4168C68.1834 43.1467 68.1887 42.8848 68.1754 42.6312C68.164 42.3664 68.1136 42.1292 68.0241 41.9195C67.9477 41.7006 67.8257 41.5139 67.6582 41.3593C67.5018 41.2066 67.2905 41.1072 67.0242 41.0612C66.5805 40.9845 66.2151 41.1156 65.928 41.4544C65.6428 41.7822 65.4437 42.2733 65.3306 42.9279C65.1485 43.9818 65.1436 44.8036 65.3159 45.3932C65.4901 45.9717 65.8379 46.3061 66.3593 46.3962C66.8475 46.4805 67.2393 46.2626 67.5349 45.7424C67.8304 45.2222 68.0387 44.447 68.1596 43.4168Z"/><path fill="#FFF8F0" d="M53.3591 36.7805C53.6063 36.6061 53.8734 36.5151 54.1603 36.5076C54.4603 36.4909 54.7045 36.4988 54.8931 36.5314C55.2481 36.5928 55.6249 36.7264 56.0235 36.9324C56.424 37.1273 56.799 37.4035 57.1485 37.7609L55.8105 40.049C55.7062 39.8596 55.5832 39.6784 55.4417 39.5054C55.3022 39.3213 55.1532 39.1585 54.9949 39.0169C54.8366 38.8753 54.6744 38.7558 54.5084 38.6586C54.3424 38.5614 54.1928 38.5012 54.0597 38.4782C53.9266 38.4552 53.7915 38.4433 53.6546 38.4425C53.5287 38.4436 53.4036 38.4734 53.2792 38.5319C53.1679 38.5812 53.0674 38.6666 52.9778 38.7883C52.8902 38.8988 52.8281 39.0595 52.7917 39.2702C52.7553 39.481 52.6953 39.762 52.6118 40.1132C52.5393 40.4663 52.4491 40.8563 52.341 41.2832C52.246 41.7009 52.136 42.139 52.0111 42.5972C51.8992 43.0463 51.7837 43.4834 51.6646 43.9084C51.5565 44.3353 51.4496 44.7224 51.3439 45.0698C51.2382 45.4171 51.1495 45.6988 51.0779 45.915L48.8841 45.5187C49.5943 42.2024 50.1548 38.8602 50.5654 35.4922L53.516 36.0706L53.3591 36.7805Z"/><path fill="#FFF8F0" d="M44.0899 44.2959C43.7249 44.3585 43.3499 44.3794 42.9651 44.3586C42.5913 44.3397 42.2436 44.3024 41.9218 44.2468C41.589 44.1893 41.2602 44.0754 40.9355 43.905C40.6127 43.7235 40.3346 43.4813 40.1014 43.1782C39.87 42.864 39.7011 42.4863 39.5945 42.0452C39.4898 41.5929 39.4948 41.0682 39.6095 40.471C39.8234 39.3655 40.0585 38.2693 40.3149 37.1825C40.5823 36.0976 40.9229 35.0196 41.3365 33.9486L43.6134 34.3592C43.3796 35.3813 43.1717 36.4194 42.9895 37.4733C42.8074 38.5273 42.6381 39.6062 42.4816 40.7103C42.4313 41.0672 42.4769 41.3322 42.6184 41.5052C42.7618 41.6671 42.9445 41.7672 43.1663 41.8055C43.2329 41.817 43.3282 41.8278 43.4521 41.8378C43.5872 41.8497 43.7222 41.8616 43.8573 41.8735C44.0053 41.8762 44.1478 41.878 44.2848 41.8788C44.4237 41.8686 44.5283 41.8581 44.5987 41.8474C44.6984 41.2705 44.8159 40.6567 44.9512 40.006C45.0976 39.3572 45.2476 38.7204 45.4013 38.0958C45.5679 37.4619 45.7289 36.8613 45.884 36.294C46.0411 35.7156 46.1857 35.2093 46.3179 34.7751L48.5449 35.1771C48.1609 36.8703 47.8333 38.5675 47.5622 40.2687C47.3041 41.9607 47.0607 43.6667 46.832 45.3867L43.9812 44.8255L44.0899 44.2959Z"/><path fill="#FFF8F0" d="M34.7875 32.8168C35.5529 32.9491 36.1881 33.2073 36.693 33.5917C37.2089 33.9779 37.6087 34.4411 37.8924 34.9814C38.1761 35.5218 38.353 36.1179 38.4231 36.7698C38.4952 37.4107 38.4737 38.0639 38.3586 38.7296C38.2436 39.3952 38.0446 40.0178 37.7617 40.5973C37.4787 41.1768 37.1139 41.6679 36.6673 42.0705C36.2207 42.4732 35.6905 42.7643 35.0768 42.9439C34.4741 43.1254 33.7901 43.15 33.0246 43.0177C32.2591 42.8854 31.6304 42.6226 31.1386 42.2291C30.6579 41.8375 30.2867 41.3735 30.0253 40.837C29.7657 40.2894 29.61 39.7027 29.5582 39.0768C29.5084 38.4398 29.5352 37.8217 29.6387 37.2226C29.7461 36.6014 29.9246 35.9981 30.1743 35.4129C30.4239 34.8276 30.7574 34.3197 31.1745 33.8891C31.5917 33.4585 32.098 33.1403 32.6934 32.9347C33.2907 32.7181 33.9887 32.6787 34.7875 32.8168ZM32.3763 38.1413C32.3322 38.3965 32.3093 38.661 32.3077 38.935C32.3191 39.1997 32.3611 39.4526 32.4337 39.6937C32.5193 39.9255 32.6384 40.1289 32.7909 40.3038C32.9565 40.4695 33.1725 40.5754 33.4387 40.6214C33.8381 40.6904 34.2081 40.5659 34.5487 40.2477C34.9004 39.9314 35.1415 39.3961 35.2718 38.6417C35.4271 37.7431 35.4228 37.074 35.2588 36.6343C35.106 36.1966 34.7744 35.9336 34.2641 35.8454C33.7648 35.7592 33.3585 35.9289 33.045 36.3546C32.7334 36.7692 32.5105 37.3647 32.3763 38.1413Z"/><path fill="#FFF8F0" d="M30.4945 30.2925C30.2143 30.7239 29.896 31.1774 29.5396 31.6528C29.1963 32.119 28.8298 32.5869 28.4401 33.0566C28.0635 33.5171 27.6721 33.9636 27.266 34.3961C26.873 34.8195 26.482 35.1975 26.0932 35.5302L26.0766 35.5273C25.5555 37.551 24.9082 39.4785 24.1346 41.31L22.2417 40.7601C22.7359 38.8918 23.1227 37.0506 23.4019 35.2365C22.8781 34.3005 22.3565 33.3192 21.8369 32.2925C21.3304 31.2567 20.892 30.1241 20.5218 28.8947L23.6398 28.4053C23.8457 29.2635 24.0453 30.092 24.2385 30.8909C24.4448 31.6806 24.715 32.4643 25.0491 33.2418C25.5933 32.6046 26.0997 31.9552 26.5683 31.2935C27.0479 30.6338 27.486 29.9497 27.8827 29.2413L30.4945 30.2925Z"/><path fill="#fff" d="M290.727 80.8932C291.234 82.7291 291.071 84.7611 289.855 86.9142C288.347 89.5309 267.941 99.6681 264.617 99.7271C263.498 99.8679 260.96 100.184 259.332 99.3893C258.803 99.139 258.404 98.828 258.071 98.4545C257.419 97.9865 256.902 97.3078 256.536 96.5904C256.271 96.0901 256.134 95.6148 256.019 95.1186C253.462 93.7624 251.469 90.6425 252.185 87.9826C251.597 87.5164 251.054 87.0085 250.576 86.4381C250.016 85.7582 249.568 84.9099 249.334 84.0675C249.197 83.5922 249.145 83.1192 249.158 82.648C249.162 82.5194 249.187 82.3915 249.212 82.2636C249.159 81.8549 249.106 81.4247 249.011 80.9934C248.747 80.4503 248.505 79.8863 248.371 79.3039C248.179 78.5055 248.137 77.6684 248.394 76.9037C248.738 75.284 250.087 73.7991 251.481 72.9798C252.113 72.6113 252.806 72.3302 253.518 72.1782C253.603 72.202 253.71 72.2049 253.818 72.1865C254.469 71.9042 255.14 71.6653 255.832 71.4271C256.892 71.0917 258.058 70.7593 259.22 70.5982C259.825 70.4433 260.408 70.2878 261.033 70.1549C260.803 69.9342 260.553 69.6915 260.345 69.45C258.105 68.274 256.178 66.6136 255.442 64.5356C253.952 60.2505 256.801 53.2976 261.94 54.2744C264.968 54.8504 261.381 57.4531 265.344 61.4629C267.909 64.0626 271.119 64.2578 273.458 64.1932C275.345 64.1592 277.26 63.8901 281.995 64.7701C286.878 65.697 293.008 76.6686 291.153 80.2189C290.995 80.4933 290.862 80.6825 290.727 80.8932Z"/><path fill="#1E1E1E" fill-rule="evenodd" d="M257.664 63.7556C258.114 65.0186 259.427 66.3087 261.44 67.3653L261.837 67.574L262.13 67.9145C262.254 68.0581 262.425 68.2265 262.664 68.4566L265.869 71.5343L261.523 72.4581C261.047 72.5592 260.603 72.6736 260.096 72.8044C260.001 72.8287 259.905 72.8537 259.805 72.8792L259.676 72.9123L259.544 72.9306C258.594 73.0623 257.59 73.3412 256.571 73.6633C255.897 73.8954 255.308 74.1068 254.755 74.3468L254.495 74.4594L254.216 74.5073C254.067 74.5329 253.902 74.5502 253.727 74.5528C253.374 74.6558 253.016 74.811 252.671 75.0119C251.651 75.6123 250.863 76.6153 250.697 77.3936L250.669 77.5255L250.626 77.6533C250.558 77.8583 250.531 78.2139 250.66 78.7521L250.663 78.7638L250.666 78.7756C250.74 79.0969 250.889 79.4713 251.129 79.9647L251.25 80.2143L251.31 80.4851C251.422 80.9928 251.487 81.4923 251.534 81.8612C251.539 81.8954 251.543 81.9284 251.547 81.9603L251.596 82.3392L251.519 82.7367L251.515 82.7563C251.514 82.7634 251.512 82.7696 251.511 82.7753C251.51 83.0036 251.538 83.2131 251.597 83.4154L251.6 83.4262L251.603 83.437C251.745 83.9484 252.033 84.5004 252.388 84.9341C252.742 85.3552 253.161 85.7516 253.649 86.1383L254.861 87.1004L254.459 88.5947C254.307 89.1592 254.402 89.9615 254.922 90.8761C255.437 91.7824 256.253 92.5772 257.123 93.0385L258.071 93.5414L258.313 94.5869C258.409 95.0008 258.491 95.2497 258.617 95.4884L258.625 95.5041L258.633 95.5199C258.877 95.9974 259.174 96.3474 259.445 96.542L259.656 96.6939L259.83 96.8883C259.955 97.0296 260.1 97.1478 260.339 97.2609L260.352 97.267L260.365 97.2732C260.698 97.436 261.312 97.5521 262.172 97.5545C262.984 97.5567 263.763 97.4613 264.323 97.3909L264.449 97.375L264.569 97.3729C264.568 97.3729 264.567 97.3729 264.567 97.3728C264.567 97.3721 264.663 97.364 264.893 97.31C265.139 97.2522 265.461 97.1603 265.861 97.0293C266.661 96.7674 267.675 96.3813 268.847 95.894C271.186 94.9214 274.043 93.5923 276.859 92.1761C279.678 90.7591 282.415 89.2751 284.523 87.9981C285.58 87.3574 286.443 86.79 287.068 86.325C287.381 86.092 287.604 85.9065 287.751 85.7689C287.802 85.7219 287.835 85.6881 287.854 85.667C288.726 84.0784 288.788 82.7154 288.458 81.5201L288.179 80.5102L288.742 79.6269C288.818 79.5082 288.872 79.4268 288.916 79.3598C288.975 79.27 289.017 79.2061 289.072 79.1129C289.09 79.0651 289.138 78.9043 289.138 78.5725C289.138 78.1787 289.071 77.656 288.909 77.0151C288.584 75.731 287.937 74.2005 287.063 72.6902C286.191 71.1829 285.148 69.7913 284.094 68.7531C282.994 67.669 282.105 67.1891 281.559 67.0842C277.831 66.3917 276.057 66.4581 274.44 66.5186C274.129 66.5302 273.824 66.5416 273.512 66.5474C271.028 66.6151 266.952 66.4436 263.669 63.1182M257.664 63.7556C257.172 62.3311 257.374 60.2137 258.275 58.5554C259.013 57.196 259.938 56.566 260.937 56.5404C260.924 57.2434 260.938 58.2738 261.329 59.464C261.724 60.6668 262.454 61.888 263.669 63.1178M260.945 55.7443C260.945 55.7407 260.945 55.7388 260.945 55.7387C260.945 55.7387 260.945 55.7405 260.945 55.7443ZM254.136 56.3083C255.597 53.6164 258.453 51.2148 262.38 51.9612L262.38 51.9613C263.545 52.1828 264.819 52.7709 265.385 54.2197C265.606 54.785 265.646 55.3234 265.657 55.6759C265.664 55.9263 265.656 56.2287 265.65 56.4505C265.648 56.5171 265.647 56.5764 265.646 56.6249C265.636 57.1457 265.658 57.5525 265.803 57.9943C265.945 58.4251 266.253 59.0328 267.019 59.8078L267.02 59.8091C268.863 61.6768 271.199 61.9 273.393 61.8395L273.404 61.8392L273.415 61.839C273.694 61.8339 273.98 61.8232 274.283 61.8117C275.972 61.7481 278.175 61.6651 282.425 62.4551L282.429 62.4559L282.434 62.4568C284.33 62.8167 286.037 64.0561 287.4 65.3986C288.811 66.7892 290.1 68.5362 291.139 70.3314C292.176 72.1236 293.019 74.0596 293.474 75.8602C293.896 77.5281 294.125 79.616 293.24 81.3094L293.229 81.3301C293.576 83.4838 293.203 85.7756 291.905 88.0726L291.9 88.0813L291.895 88.0899C291.627 88.5546 291.26 88.9355 290.968 89.2085C290.649 89.5069 290.276 89.8075 289.88 90.1023C289.087 90.6928 288.083 91.3471 286.963 92.0257C284.717 93.3872 281.862 94.9318 278.975 96.3836C276.086 97.8361 273.124 99.2159 270.655 100.242C269.423 100.755 268.286 101.191 267.327 101.505C266.512 101.772 265.592 102.032 264.813 102.076C264.235 102.148 263.24 102.267 262.159 102.264C261.068 102.261 259.605 102.138 258.313 101.512C257.586 101.167 256.991 100.73 256.489 100.211C255.571 99.4918 254.902 98.5634 254.447 97.6764C254.258 97.3179 254.116 96.9729 254.005 96.6479C252.707 95.7625 251.595 94.554 250.828 93.2029C250.123 91.9636 249.641 90.4767 249.685 88.9252C249.368 88.6214 249.062 88.2971 248.771 87.9494L248.765 87.9424L248.759 87.9354C247.999 87.0132 247.394 85.8759 247.068 84.7089C246.86 83.9826 246.786 83.2696 246.805 82.5835C246.808 82.4571 246.819 82.3352 246.832 82.2264C246.808 82.0483 246.786 81.8906 246.759 81.7412C246.508 81.2015 246.244 80.5551 246.079 79.8443C245.835 78.8227 245.726 77.5607 246.12 76.2857C246.681 73.8854 248.552 71.9699 250.288 70.9497L250.292 70.9478L250.295 70.946C251.119 70.4651 252.045 70.085 253.026 69.8755L253.478 69.779C254.019 69.5649 254.555 69.3765 255.066 69.2005L255.094 69.191L255.122 69.1822C255.301 69.1254 255.487 69.0675 255.678 69.0097C254.616 67.9832 253.732 66.7592 253.223 65.3219L253.221 65.3155L253.218 65.3091C252.224 62.4485 252.701 58.9509 254.136 56.3083Z" clip-rule="evenodd"/><path fill="#5F5EF9" d="M295.905 88.3017L302.881 86.3707C304.226 85.8074 304.846 84.281 304.283 82.9366L296.396 59.4414C295.832 58.0969 294.306 57.4763 292.961 58.0397L284.445 60.6144C283.101 61.1777 282.48 62.7041 283.043 64.0485L292.471 86.9C293.035 88.2231 294.582 88.8442 295.905 88.3017Z"/><path fill="#fff" d="M252.473 93.8853C252.782 95.137 253.783 96.1291 255.017 96.4844C255.634 96.6514 256.255 96.6684 256.859 96.5349C256.798 97.1763 256.952 97.8236 257.279 98.4113C257.993 99.717 259.364 100.548 260.768 100.951C262.023 101.285 263.16 101.252 264.309 100.79C265.666 100.549 267.009 100.028 268.247 99.4407C269.92 98.6291 271.514 97.5795 272.919 96.3533C273.951 95.4599 275.205 94.2938 275.032 92.7886C274.86 91.2405 273.361 90.4063 271.95 90.2605C271.907 90.2593 271.843 90.2576 271.8 90.2564C272.77 89.2969 273.425 88.0716 273.438 86.8073C273.477 83.8073 270.168 83.3094 267.717 83.5852C268.241 83.2566 268.701 82.8833 269.142 82.4238C270.201 81.3382 271.21 79.7153 270.524 78.1531C269.778 76.4393 268.031 76.0485 266.184 76.1693C266.207 76.1271 266.251 76.0854 266.274 76.0217C267.103 74.7154 267.103 73.1506 266.173 71.8819C264.459 69.4985 260.751 69.504 258.126 69.8394C255.179 70.2302 252.294 71.4587 250.012 73.3897C247.949 75.1552 246.076 77.8048 246.79 80.6753C247.098 81.9484 247.924 83.1071 249.198 83.5279C249.389 83.5974 249.602 83.6461 249.795 83.6729C248.842 84.7829 248.356 86.12 248.998 87.7238C249.759 89.6524 251.642 90.5829 253.531 90.4846C252.668 91.447 252.166 92.5693 252.473 93.8853Z"/><path fill="#1E1E1E" d="M252.474 93.8855C252.782 95.1373 253.784 96.1293 255.018 96.4847C255.635 96.6516 256.256 96.6686 256.86 96.5351C256.799 97.1765 256.953 97.8238 257.28 98.4115C257.994 99.7172 259.365 100.548 260.769 100.951C262.024 101.285 263.161 101.252 264.31 100.791C265.667 100.549 267.01 100.029 268.248 99.4409C269.921 98.6293 271.515 97.5798 272.92 96.3536C273.952 95.4601 275.206 94.2941 275.033 92.7888C274.861 91.2408 273.362 90.4066 271.951 90.2607C271.908 90.2596 271.844 90.2578 271.801 90.2566C272.771 89.2972 273.426 88.0718 273.439 86.8075C273.478 83.8076 270.169 83.3096 267.718 83.5854C268.242 83.2568 268.702 82.8836 269.143 82.4241C270.202 81.3384 271.211 79.7156 270.525 78.1534C269.779 76.4395 268.032 76.0487 266.185 76.1696C266.208 76.1273 266.252 76.0856 266.275 76.022C267.104 74.7157 267.104 73.1509 266.174 71.8821C264.46 69.4987 260.752 69.5043 258.127 69.8396C255.18 70.2304 252.295 71.459 250.013 73.3899C247.95 75.1554 246.077 77.805 246.791 80.6755C247.099 81.9487 247.925 83.1074 249.199 83.5282C249.39 83.5977 249.603 83.6464 249.796 83.6731C248.843 84.7831 248.357 86.1202 248.999 87.724C249.76 89.6527 251.643 90.5831 253.532 90.4848C252.669 91.4472 252.167 92.5695 252.474 93.8855ZM262.652 76.823C262.414 76.8808 262.198 76.9606 261.982 77.019C258.654 77.9996 255.605 79.7381 252.642 81.4789C252.163 81.7659 251.661 82.0737 251.18 82.4463C251.115 82.4446 251.073 82.4434 251.008 82.4416C250.837 82.4369 250.664 82.4965 250.553 82.6221C249.912 82.5616 249.299 82.2233 248.863 81.7183C248.073 80.8393 247.96 79.4643 248.312 78.3593C248.948 76.276 250.88 74.6141 252.646 73.505C254.523 72.3131 256.728 71.6233 258.941 71.4267C260.811 71.2636 263.792 71.1952 264.943 73.0059C266.052 74.7726 264.176 75.9645 262.652 76.823ZM268.102 81.3024C267.718 82.0206 267.101 82.6254 266.509 83.1236C265.522 83.954 264.324 84.6285 263.052 84.8938C263.009 84.914 262.945 84.9123 262.902 84.9111C261.102 85.6549 259.34 86.5927 257.707 87.5339C256.879 88.0043 255.813 88.5967 254.85 89.3205C253.748 89.6333 252.57 89.601 251.537 88.9725C250.504 88.3226 249.832 87.0395 250.144 85.8048C250.408 84.8045 251.241 84.12 252.049 83.5634C253.055 82.8621 254.163 82.2923 255.23 81.6999C257.493 80.4543 259.84 79.2968 262.305 78.5284C263.58 78.1346 264.917 77.8497 266.249 77.7361C267.259 77.6566 268.993 77.747 269.171 79.0595C269.299 79.8561 268.72 80.6762 268.102 81.3024ZM258.444 96.6214C258.562 95.4242 260.096 94.9947 261.007 94.591C262.201 94.0663 263.393 93.5631 264.606 93.1033C265.862 92.6447 267.159 92.2516 268.473 92.0303C269.657 91.827 271.057 91.6081 272.248 91.9194C272.78 92.0626 273.413 92.4444 273.417 93.0661C273.427 93.5165 273.05 93.9564 272.763 94.27C271.901 95.211 270.828 96.039 269.779 96.7605C268.709 97.5029 267.555 98.1358 266.362 98.6604C265.733 98.9432 265.104 99.2047 264.475 99.4661C264.301 99.5471 264.128 99.6067 263.954 99.6877C262.923 99.788 261.768 99.692 260.834 99.3449C259.709 98.9497 258.299 97.9893 258.444 96.6214ZM254.199 91.9393C254.868 91.0145 255.937 90.3149 256.897 89.6982C257.989 88.9778 259.141 88.3878 260.314 87.8197C262.465 86.764 264.725 85.647 267.095 85.1975C268.151 84.9906 269.377 84.8527 270.44 85.182C271.63 85.5361 272.161 86.5153 271.679 87.681C271.15 88.9741 270.056 89.8015 268.818 90.3678C266.516 90.6906 264.221 91.528 262.139 92.3927C260.73 92.9757 258.958 93.5059 257.815 94.5463C257.529 94.8172 257.306 95.1326 257.125 95.4492C256.285 95.5977 255.387 95.5087 254.695 94.9753C253.751 94.2206 253.508 92.9278 254.199 91.9393Z"/><path fill="#1E1E1E" d="M266.677 71.4886C267.545 72.6699 267.74 74.1543 267.232 75.4908C269.158 75.6079 270.466 76.394 271.09 77.8687C271.734 79.3869 271.192 81.194 269.582 82.8433C269.582 82.8433 269.582 82.8433 269.56 82.8642C270.715 82.9387 272.035 83.2535 272.956 84.0933C273.708 84.7784 274.07 85.6672 274.061 86.7816C274.054 87.8104 273.682 88.8719 272.992 89.7962C274.31 90.2181 275.484 91.172 275.656 92.6987C275.861 94.6335 274.28 96.0049 273.314 96.8359C271.864 98.1038 270.227 99.1735 268.49 100.005C267.012 100.736 265.671 101.192 264.443 101.416C263.186 101.896 261.92 101.947 260.559 101.567C258.814 101.09 257.385 100.043 256.671 98.7163C256.426 98.2595 256.247 97.7616 256.197 97.2457C255.725 97.2757 255.254 97.2199 254.808 97.0791C253.319 96.6524 252.172 95.4849 251.827 93.9964C251.576 92.982 251.732 92.0003 252.273 91.0291C250.502 90.7447 249.011 89.5892 248.35 87.9206C247.808 86.5553 247.93 85.251 248.671 84.0066C247.421 83.4794 246.489 82.2963 246.102 80.7852C245.466 78.1741 246.702 75.2927 249.534 72.8623C251.839 70.8891 254.834 69.5564 257.974 69.1494C258.448 69.0767 258.964 69.0265 259.5 68.9983C262.16 68.9212 265.108 69.3235 266.677 71.4886ZM248.358 82.1332C247.485 81.1661 247.227 79.5942 247.674 78.1488C248.404 75.7895 250.575 74.0055 252.276 72.9374C254.195 71.7253 256.467 70.973 258.852 70.7597C260.12 70.6444 263.966 70.2997 265.467 72.6344C265.878 73.2887 266.01 73.9568 265.842 74.5953C265.53 75.8086 264.264 76.6528 262.957 77.3886L262.892 77.4297L262.827 77.4494C262.59 77.5072 262.373 77.587 262.157 77.6454C258.959 78.5866 255.976 80.2627 252.948 82.0446C252.404 82.3512 251.945 82.6602 251.551 82.9709L251.376 83.0947L251.162 83.0888C251.097 83.0871 251.033 83.0853 250.99 83.0841C250.969 83.0836 250.947 83.1044 250.947 83.1044L250.859 83.1877L251.072 83.215L250.298 84.1155C249.367 85.2047 249.144 86.3132 249.604 87.5048C249.624 87.5696 249.644 87.613 249.685 87.6785C249.425 87.0283 249.38 86.3197 249.548 85.6383C249.86 84.4251 250.825 83.6369 251.699 83.0178C252.595 82.3993 253.553 81.8682 254.467 81.3574L254.924 81.1127C257.732 79.5605 259.945 78.5708 262.129 77.9018C263.513 77.4682 264.892 77.2058 266.202 77.0917C268.286 76.913 269.639 77.6146 269.838 78.9705C269.964 79.8314 269.553 80.7419 268.627 81.7025C268.469 81.9769 268.291 82.2292 268.069 82.5018C268.266 82.3357 268.465 82.1482 268.663 81.9607C269.237 81.3548 270.543 79.8258 269.917 78.4154C269.393 77.222 268.185 76.6959 266.209 76.8347L264.856 76.9262L265.66 75.7693C265.682 75.7484 265.682 75.727 265.704 75.7062C266.399 74.6106 266.37 73.3236 265.626 72.2958C264.118 70.2181 260.754 70.1902 258.194 70.5273C255.289 70.9193 252.534 72.13 250.426 73.9371C249.263 74.9341 246.661 77.5637 247.394 80.5634C247.683 81.7502 248.43 82.6496 249.365 82.9539C249.006 82.7297 248.671 82.4633 248.358 82.1332ZM250.94 81.7752C251.334 81.4859 251.792 81.1983 252.293 80.912C255.387 79.089 258.435 77.3719 261.784 76.3919C261.979 76.3329 262.173 76.2739 262.389 76.2156C263.064 75.8268 264.371 75.0909 264.586 74.2822C264.658 73.9841 264.581 73.6819 264.376 73.3333C263.657 72.199 261.889 71.7861 258.988 72.0496C256.818 72.2473 254.741 72.9407 252.996 74.029C251.469 74.9946 249.54 76.5494 248.929 78.5262C248.67 79.3551 248.702 80.5349 249.347 81.2599C249.638 81.5894 250.018 81.8142 250.422 81.911C250.575 81.8295 250.768 81.7919 250.94 81.7752ZM254.566 88.7125C255.463 88.0512 256.443 87.4992 257.205 87.0485L257.379 86.9461C258.795 86.1489 260.688 85.1076 262.64 84.2822L262.748 84.2423L262.855 84.2453C262.877 84.2458 262.898 84.2464 262.898 84.2464C264.213 83.9609 265.349 83.1989 266.072 82.6186C266.752 82.0584 267.217 81.5138 267.51 80.986L267.556 80.9015L267.622 80.839C268.261 80.192 268.599 79.5796 268.525 79.1489C268.399 78.2666 266.639 78.3684 266.296 78.3804C265.071 78.4755 263.799 78.7407 262.502 79.1339C260.405 79.7838 258.279 80.733 255.536 82.2441L255.079 82.4888C254.187 82.9788 253.251 83.4891 252.421 84.0665C251.722 84.5404 250.976 85.163 250.783 85.9508C250.566 86.8238 251.031 87.8654 251.873 88.4029C252.485 88.7841 253.146 88.888 253.726 88.8396C254.027 88.8264 254.306 88.7912 254.566 88.7125ZM263.184 85.5404C263.141 85.5392 263.098 85.5595 263.055 85.5583C261.19 86.3432 259.384 87.3226 258.034 88.1002L257.859 88.2026C257.075 88.6527 256.117 89.2052 255.242 89.8457L255.133 89.9284L255.003 89.9678C254.96 89.988 254.895 89.9863 254.852 90.0065L253.99 90.9475C253.15 91.8891 252.846 92.8025 253.077 93.752C253.232 94.3564 253.582 94.9019 254.085 95.3229C253.018 94.3505 252.804 92.7585 253.651 91.5813C254.386 90.5725 255.478 89.8522 256.46 89.2146L256.525 89.1735C257.748 88.371 259.03 87.7202 260.008 87.254L260.247 87.1319C262.376 86.097 264.57 85.0211 266.94 84.5716C267.997 84.3647 269.352 84.1875 270.585 84.5642C271.371 84.8002 271.959 85.2664 272.263 85.8964C272.547 86.5043 272.549 87.2118 272.272 87.933C271.743 89.2261 270.708 90.2266 269.102 90.9757L269.015 91.0162L268.928 91.0353C266.605 91.3575 264.33 92.2169 262.401 93C262.098 93.1203 261.816 93.2412 261.491 93.3609C260.321 93.8218 259.086 94.281 258.273 95.0304C258.053 95.2388 257.875 95.4697 257.739 95.7446L257.602 96.0409L257.558 96.0612L257.521 96.6389C257.486 97.1524 257.599 97.6914 257.865 98.1703C258.416 99.1929 259.551 99.9957 260.956 100.377C261.87 100.638 262.728 100.64 263.548 100.427C262.497 100.462 261.45 100.326 260.622 100.025C259.158 99.4919 257.647 98.3144 257.822 96.6257C257.967 95.215 259.398 94.6326 260.374 94.2306C260.525 94.1704 260.656 94.1097 260.785 94.0704C261.914 93.5654 263.15 93.0419 264.427 92.5839C265.878 92.0449 267.195 91.6952 268.423 91.493C269.78 91.2515 271.2 91.0547 272.477 91.3897C273.477 91.6529 274.144 92.3357 274.143 93.1717C274.144 93.9005 273.614 94.4862 273.326 94.8213C272.375 95.8884 271.172 96.7558 270.233 97.416C269.162 98.1583 267.965 98.8115 266.706 99.3772C266.315 99.5594 265.904 99.7196 265.535 99.881C265.318 99.9608 265.123 100.063 264.906 100.142C265.856 99.9112 266.874 99.5318 268.025 98.9632C269.655 98.1718 271.183 97.1634 272.566 95.958C273.598 95.0645 274.589 94.1056 274.449 92.9443C274.332 91.7621 273.106 91.1069 271.931 90.9889C271.909 90.9883 271.888 90.9878 271.866 90.9872C271.845 90.9866 271.802 90.9854 271.781 90.9848L270.369 90.8604L271.382 89.8807C272.307 88.9843 272.83 87.9054 272.836 86.8767C272.835 86.1478 272.615 85.5845 272.155 85.1646C271.339 84.4348 269.718 84.1118 267.827 84.2957L265.892 84.4999C264.958 84.9674 264.047 85.3497 263.184 85.5404ZM256.756 94.8174C256.936 94.5222 257.157 94.2711 257.399 94.0419C258.41 93.1264 259.797 92.5857 261.032 92.1051C261.336 91.9848 261.639 91.8644 261.92 91.765C263.894 90.9402 266.233 90.0611 268.664 89.7205C269.902 89.1327 270.716 88.3619 271.107 87.408C271.221 87.1539 271.296 86.7702 271.134 86.4228C270.992 86.1402 270.698 85.8964 270.273 85.7775C269.316 85.4941 268.154 85.6551 267.249 85.8233C265.051 86.2346 262.922 87.2695 260.88 88.2853L260.641 88.4074C259.706 88.8748 258.467 89.5053 257.289 90.2448L257.224 90.2858C256.35 90.8621 255.347 91.4991 254.767 92.3192C254.277 92.9917 254.445 93.9181 255.138 94.4301C255.621 94.7863 256.219 94.867 256.649 94.8359C256.671 94.815 256.714 94.8162 256.756 94.8174ZM263.778 99.0611C263.93 99.001 264.06 98.9403 264.191 98.8795C264.429 98.7789 264.689 98.6788 264.928 98.5782C265.318 98.4174 265.708 98.2566 266.077 98.0952C267.27 97.5706 268.381 96.9365 269.386 96.2567C270.259 95.659 271.397 94.8327 272.259 93.8703C272.392 93.7239 272.745 93.3263 272.752 93.0907C272.758 92.8765 272.399 92.6737 272.08 92.5793C270.973 92.2917 269.53 92.5523 268.583 92.6978C267.441 92.9023 266.21 93.233 264.825 93.7309C263.59 94.1901 262.376 94.6927 261.269 95.1983C261.139 95.259 260.987 95.3192 260.835 95.3793C260.098 95.6806 259.166 96.0624 259.106 96.6824C259.014 97.6873 260.301 98.4514 261.065 98.7296C261.765 98.9845 262.662 99.1163 263.543 99.0547C263.628 99.0785 263.714 99.0594 263.778 99.0611Z"/><path fill="#1E1E1E" d="M295.642 56.4412C296.702 56.8775 297.536 57.7149 298 58.7779L298.02 58.8428L305.907 82.338C306.79 84.5272 305.736 87.0277 303.546 87.9323L303.459 87.9728L296.461 89.9246C295.421 90.3248 294.285 90.3152 293.268 89.88C292.208 89.4437 291.374 88.6063 290.91 87.5432L281.483 64.6917C281.04 63.6293 281.03 62.45 281.466 61.3688C281.903 60.2875 282.74 59.4745 283.803 59.0106L283.89 58.9701L292.406 56.3954C292.84 56.2143 293.293 56.1195 293.743 56.1104C294.387 56.0852 295.027 56.1885 295.642 56.4412ZM284.625 62.6771C284.532 62.9104 284.526 63.146 284.627 63.3846L294.054 86.236C294.155 86.4532 294.322 86.6292 294.555 86.7214C294.788 86.8135 295.024 86.82 295.241 86.7187L295.328 86.6782L302.283 84.7467C302.696 84.5222 302.881 84.0343 302.701 83.5792L302.681 83.5143L294.793 60.0405C294.691 59.8448 294.524 59.6688 294.312 59.5986C294.079 59.5065 293.843 59.5 293.605 59.6007L293.518 59.6412L285.023 62.2165C284.849 62.2975 284.695 62.4647 284.625 62.6771Z"/></svg>